<?xml version="1.0" encoding="utf-8"?>
<!-- Generator: Adobe Illustrator 21.0.2, SVG Export Plug-In . SVG Version: 6.00 Build 0)  -->
<svg version="1.1" xmlns="http://www.w3.org/2000/svg" xmlns:xlink="http://www.w3.org/1999/xlink" x="0px" y="0px"
	 viewBox="0 0 310 349.8" style="enable-background:new 0 0 310 349.8;" xml:space="preserve">
<g id="hats">
	<g id="tophat" style="display: inline">
		<g>
			<g>
				<path d="M133.3,115.5c0.6-0.5,1-1.1,1.4-1.8c0.1-0.5,0.2-1,0.3-1.5c-4.4,0.8-10.3-0.5-14.1-0.6c-4.6-0.2-9.2-0.3-13.8-0.3
					c-16.8-0.1-33.6,1-50.2,3c0.2,0.3,0.5,0.6,0.6,0.9c0.4,0.7,0.7,1.4,0.7,2.2c19.5-2.4,39.2-3.2,58.8-2.7
					c5.2,0.2,10.5,0.5,15.7,0.8C133,115.5,133.2,115.5,133.3,115.5z"/>
			</g>
		</g>
		<g>
			<g>
				<path d="M131.4,114.7c0,0.9,0.6,1.3,1.2,1.4c0.8-0.5,1.4-1.2,1.9-2c0.1-0.5,0.1-1,0.1-1.5c0.1-0.5-0.1-0.8-0.4-1.1
					c-0.2-4.4-0.1-9.1-1-13.3c-0.5-2.4-1.4-2.7-3.9-3c-11.9-1.1-24.3-0.6-36.2-0.7H75.5c-2.9,0-5.9,0-8.8,0.1
					c-2.5,0-5.5-0.5-7.8,0.2c-2.4,0.6-2.7,2.2-2.9,4.4c-0.4,5,0.1,10.1,1,15.1c0.2,0.3,0.4,0.5,0.6,0.8c0.3,0.5,0.5,1.1,0.7,1.7
					c0.9,0.2,2.1-0.6,1.8-1.9c-0.9-4.3-2.2-10.3-1.3-14.8c0.6-3.1,2.1-2.5,4.8-2.5c2,0,3.9,0,5.9-0.1c8.5-0.1,17-0.1,25.5,0
					s17,0.2,25.5,0.4c1.9,0,4-0.2,5.9,0.2c3,0.6,3.3,0.7,4.1,3.7C131.5,105.8,131.1,110.7,131.4,114.7z"/>
			</g>
		</g>
		<g>
			<g>
				<path d="M68.6,95.4c-0.3-15.7-0.6-31.5-0.9-47.2c-0.6,0.5-1.3,1-1.9,1.4c20,4,40.2,5.8,60.6,5.3c-0.5-0.5-1-1-1.5-1.5
					c-0.6,14-1.1,28-1.7,41.9c-0.1,1.9,2.9,1.9,3,0c0.6-14,1.1-28,1.7-41.9c0-0.8-0.7-1.5-1.5-1.5c-20.1,0.4-40.1-1.3-59.8-5.2
					c-0.9-0.2-1.9,0.4-1.9,1.4c0.3,15.7,0.6,31.5,0.9,47.2C65.6,97.3,68.6,97.3,68.6,95.4L68.6,95.4z"/>
			</g>
		</g>
	</g>
	<g id="crown" style="display: none">
		<g>
			<g>
				<path d="M133.6,113.4c-4.2,0.4-9.2-0.7-12.6-0.8c-4.6-0.2-9.2-0.3-13.8-0.3c-16.9-0.1-33.6,1-50.3,3c0.3,0.7,0.6,1.4,0.8,2.2
					c0.1,0.3,0.1,0.7,0.1,1c19.7-2.4,39.6-3.3,59.4-2.8c5.2,0.2,10.5,0.5,15.7,0.8c0.3,0,0.6,0,0.8,0.1
					C133.5,115.5,133.5,114.5,133.6,113.4z"/>
			</g>
		</g>
		<g>
			<g>
				<path d="M134.6,109.2c-0.1-12.6,0.3-25.3,1.4-37.9c0.1-1.4-1.7-1.9-2.6-1.1c-6.7,6.1-14,11.5-21.7,16.2
					c-4.6-7.8-8.4-15.9-11.7-24.3c-0.5-1.2-2-1.5-2.7-0.4C91.6,71,85.5,79.7,79,88.1c-5.3-6.4-10.7-12.7-16.4-18.8
					c-1-1-2.4-0.1-2.6,1.1c-1.7,15.7-2.3,31.4-1.8,47.2c0.1,1.9,3.1,1.9,3,0c-0.5-14.6,0-29.1,1.4-43.6c5.2,5.7,10.4,11.6,15.3,17.6
					c0.5,0.6,1.7,0.6,2.1,0c6.5-8.2,12.6-16.8,18.2-25.7c3.3,8.1,7.2,15.9,11.7,23.5c0.4,0.7,1.3,1,2.1,0.5
					c7.4-4.3,14.3-9.3,20.7-14.9c-1,13.2-1.3,26.4-1,39.6c0,1.1,1.1,1.6,2,1.4C133.4,113.7,133.8,111.4,134.6,109.2z"/>
			</g>
		</g>
	</g>
	<g id="frilly" style="display: none">
		<g >
			<g>
				<path d="M91.1,115.8c8.5-0.3,17-0.4,25.6,0c1.9,0.1,1.9-2.9,0-3c-8.5-0.3-17-0.3-25.6,0C89.2,112.8,89.2,115.8,91.1,115.8
					L91.1,115.8z"/>
			</g>
		</g>
		<g>
			<g>
				<path d="M62.8,114.6c-1.9-1.4-5.1-6.1-3.6-8.6c2-3.4,10.4-1.1,13.5-0.7c7.7,0.8,15.5,1.6,23.2,2s15.5,0.3,23.2-0.5
					c2.4-0.3,4.8-0.4,6.9-1.3c1.5-0.6,1.7-1.6,2.7-0.6c1.7,1.9,0.4,6.4-0.8,7.8c-1.2,1.5,0.9,3.6,2.1,2.1c2.3-2.7,2.8-5.2,2.1-8.7
					c-0.5-2.5-0.9-5.3-4.1-4.9c-1.8,0.2-3.5,1.6-5.4,2.1c-3.6,0.8-7.6,0.9-11.2,1.1c-6.8,0.3-13.6,0.1-20.3-0.4
					c-6.5-0.5-12.9-1.1-19.4-1.8c-4-0.4-9.6-2.2-13.3,0.4c-5.5,3.9-1.3,11.5,2.8,14.6C62.8,118.4,64.3,115.7,62.8,114.6L62.8,114.6z
					"/>
			</g>
		</g>
		<g>
			<g>
				<path d="M105.9,104.3c-1.7-1.9-1.1-5.2,1.7-5.6c2.5-0.3,4.1,2.7,2.3,4.5c-1.4,1.4,0.7,3.5,2.1,2.1c3.7-3.6,0.7-10-4.4-9.6
					c-5.4,0.5-7.2,6.9-3.8,10.7C105.1,107.8,107.2,105.7,105.9,104.3L105.9,104.3z"/>
			</g>
		</g>
		<g>
			<g>
				<path d="M94.6,103.5c-1.4-3.8,5.9-4,7.8-2.4c1.4,1.3,3.6-0.8,2.1-2.1c-3.9-3.5-15.3-1.8-12.8,5.3
					C92.3,106.1,95.2,105.3,94.6,103.5L94.6,103.5z"/>
			</g>
		</g>
		<g>
			<g>
				<path d="M97.8,96.7c-3-1.9,0.8-4.7,3-4.6c1.4,0.1,3,0.6,3.9,1.6c0.4,0.4,1.6,2.3,1.2,2.9c0.9,0,1.7,0,2.6,0v-0.1
					c-0.2,0.7-0.4,1.4-0.5,2.1c0,0,0,0,0.1,0c1.7-0.9,0.2-3.5-1.5-2.6c0,0,0,0-0.1,0c-0.7,0.4-0.9,1.4-0.5,2.1v0.1
					c0.6,1,2,0.9,2.6,0c1.3-1.9-0.3-5.2-1.7-6.6c-1.9-1.9-5.1-2.8-7.8-2.3c-4.8,0.9-7.5,7.1-2.8,10.1C98,100.3,99.5,97.7,97.8,96.7
					L97.8,96.7z"/>
			</g>
		</g>
		<g>
			<g>
				<path d="M106.2,91.8c0.5-2.8,4.9-1.1,6.1,0.4c1.4,1.7,1.1,4.4-0.7,5.7c-1.6,1.1-0.1,3.7,1.5,2.6c3.6-2.5,4.2-7.7,1-10.8
					c-2.8-2.7-9.8-3.7-10.7,1.4C102.9,92.8,105.8,93.7,106.2,91.8L106.2,91.8z"/>
			</g>
		</g>
		<g>
			<g>
				<path d="M113.9,98.7c1.4-0.5,4-2.1,5.4-1.5c2.1,0.9,1,4,0.4,5.5c-0.7,1.8,2.2,2.6,2.9,0.8c1.1-2.8,1.6-6.2-1-8.4
					c-2.6-2.2-5.9-0.4-8.5,0.7C111.4,96.5,112.1,99.4,113.9,98.7L113.9,98.7z"/>
			</g>
		</g>
		<g>
			<g>
				<path d="M68.3,103.3C67,92.5,79.7,84.9,88.7,82.2c5.4-1.6,10.9-1.4,16.1,1.1c4.2,2,11.2,5.9,11.7,10.9c0.2,1.9,3.2,1.9,3,0
					c-0.6-5.7-5.3-8.7-9.8-11.5c-5.8-3.6-11.7-5.3-18.6-4.1c-11.2,2-27.4,11.5-25.8,24.7C65.5,105.2,68.5,105.2,68.3,103.3
					L68.3,103.3z"/>
			</g>
		</g>
	</g>
</g>
<g id="faces">
	<g id="sad" style="display: none">
		<g>
			<g>
				<path d="M59.8,151.7c0.4,0.2,0.8,0.4,1.2,0.7c1.7,0.9,3.1-1.5,1.5-2.6c-2.1-1.4-5.1-0.6-6.6,1.3c-1.6,2-1.2,4.8,0.9,6.2
					c1.8,1.3,4.6,1.3,6.3-0.3c1.9-1.9,1.4-4.9-0.4-6.6c-1.8-1.7-4.7-1.7-6.3,0.3c-1.4,1.8-1.6,4.6,0,6.4c1.8,2,5.2,1.7,6.8-0.3
					c1.7-2.1,0.8-5.5-1.8-6.5c-1.5-0.6-3.1-0.1-4.2,1c-0.9,1-1.6,2.8-0.9,4c0.8,1.4,3,1.1,4.1,0.3c1.3-0.9,1.9-2.3,1.6-3.9
					c-0.1-0.5-0.6-1-1-1c-1.4-0.2-2.9-0.1-3.8,1.2c-0.7,1-0.7,2.4,0.1,3.3c2,2.4,5.6-0.9,3.4-3.1c-1.4-1.3-3.5,0.8-2.1,2.1
					c-0.1-0.1,1.4-0.7,1.1-0.7h0.5c-0.3-0.3-0.7-0.7-1-1c0.1,0.3-0.4,0.8-0.8,0.7c0.2,0.3,0.5,0.6,0.7,0.9c-0.2-1.1,1.3-1.5,1.8-0.5
					c0.5,1.1-0.6,2-1.7,1.8c-2-0.4-0.9-4.3,1-3.1c0.7,0.5,1.4,1.8,0.7,2.5c-0.6,0.6-1.7,0.5-2.3,0.1c-2.1-1.2,0.7-3.7,2.3-2.6
					c0.5-0.9,1-1.7,1.5-2.6c-0.4-0.2-0.8-0.4-1.2-0.7C59.6,148.2,58.1,150.8,59.8,151.7L59.8,151.7z"/>
			</g>
		</g>
		<g>
			<g>
				<path d="M130.9,151.2c-1.6-1.5-4.3-1.7-5.8,0.1c-1.4,1.6-1,4.3,0.8,5.4c1.9,1.2,4.5-0.1,5-2.3c0.5-2.3-1.9-4-4-3.6
					c-2.2,0.5-3.1,3.1-2.1,5c1.1,2.1,3.9,2.5,5.8,1.2c1.8-1.3,2.3-4,1-5.8c-1.2-1.7-3.7-2.1-5.4-0.9c-2,1.3-1.9,4-0.2,5.6
					c1.6,1.6,4.2,1.4,5.5-0.5c1.1-1.6,0.9-3.9-0.5-5.3c-1.6-1.4-4.1-1.1-5.5,0.3c-1.6,1.5-1.5,3.9,0,5.5c1.5,1.5,4.2,1.4,5.1-0.6
					c0.9-1.9-0.3-4.3-2.2-4.9c-2.2-0.6-4.7,1.3-4.6,3.6c0.1,2.6,3.5,4.4,5.5,2.5c1.7-1.6,1.3-4.9-1.2-5.5c-1.2-0.3-2.5,0.2-3.4,1.1
					c-0.9,0.9-1.7,2.4-0.8,3.5c1.7,1.9,4.7,1,5.6-1.2c0.3-0.8-0.3-1.6-1-1.8c-0.9-0.2-1.5,0.3-1.8,1c0.1-0.2,0,0-0.3,0
					c-0.2,0-0.2,0-0.3-0.2c0.1,0.5,0.3,1,0.4,1.5c0.1-0.3,0.5-1.1,0.9-1c0,0,0.1,0.2,0,0.3s-0.5,0-0.5-0.3c0-0.4,0.5-0.7,0.8-0.5
					c0.2,0.1,0.3,0.5,0.3,0.6s-0.2,0,0,0c-0.2,0-0.4-0.2-0.5-0.4c-0.6-0.8,0.5-1.5,1.2-1.4c0.7,0.2,0.8,1.3,0.2,1.7
					c-0.6,0.3-1.5-0.7-0.9-1.2c0.9-0.8,1.7,0.6,1.3,1.4c-0.5,1-2.4,0.7-1.8-0.4c0-0.1,0.4-0.2,0.6,0c0,0-0.2,0.3-0.5,0.2
					s-0.2-0.7-0.1-0.9c0.3-0.5,1.1-0.3,1.5,0C130.2,154.6,132.3,152.5,130.9,151.2L130.9,151.2z"/>
			</g>
		</g>
		<g>
			<g>
				<path d="M82.9,170c-0.1,0.5,0.1,1.1,0.7,1.3c0.5,0.3,1,0.5,1.4,0.8c0.8,0.8,1.7,1.5,2.8,2.1c0.4,0.3,0.8,0.3,1.2,0.1
					c0.2,0.2,0.4,0.4,0.6,0.7c0.1,0.1,0.2,0.1,0.3,0.2c0.4-0.1,0.9-0.2,1.4-0.2c0.2,0,0.4,0,0.5,0c2.8-2.1,5.7-4.1,8.5-6.2l0,0l0,0
					c0.3-0.2,0.5-0.4,0.8-0.6c1.1-0.8,0.9-2.9-0.8-2.8c-4.4,0.4-8.8,1-13.2,1.8c-0.1,0.1-0.3,0.1-0.4,0.2c-0.3-0.1-0.7-0.2-1-0.3
					c-0.5-0.1-1.1,0.1-1.4,0.5C82.8,167.4,81.9,169.2,82.9,170z"/>
			</g>
		</g>
		<g>
			<g>
				<path d="M89.5,175.3c0.5-0.2,1.1-0.3,1.7-0.3c0.1,0,0.2,0,0.3,0c0.1-0.1,0.1-0.2,0.2-0.3c0.8-1.7-1.8-3.2-2.6-1.5
					c-0.3,0.7-0.7,1.3-1,2C88.5,175.1,89,175.2,89.5,175.3z"/>
			</g>
		</g>
		<g>
			<g>
				<path d="M89.5,175.3c0.5-0.2,1.1-0.3,1.7-0.3c0.4,0,0.8,0,1.1-0.1c-0.6-0.5-1.2-0.9-1.8-1.4c-1.3-1-3,0.4-2.5,1.5
					C88.5,175.1,89,175.2,89.5,175.3z"/>
			</g>
		</g>
		<g>
			<g>
				<path d="M86.5,168c-1.3,0.2-2.7,0.2-4.1,0.2c0.1,1,0.3,2,0.4,2.9c0.9-0.3,1.8-0.4,2.8-0.3c0-1,0-2,0-3c-0.9-0.1-1.7,0-2.5,0.2
					c-1.9,0.4-1.1,3.3,0.8,2.9c0.6-0.1,1.1-0.1,1.7-0.1c0.8,0.1,1.5-0.7,1.5-1.5c0-0.9-0.7-1.4-1.5-1.5c-1.2-0.1-2.4,0-3.6,0.4
					c-1.6,0.6-1.3,2.9,0.4,2.9c1.6,0.1,3.2,0,4.8-0.3c0.8-0.1,1.2-1.1,1-1.8C88.1,168.2,87.3,167.9,86.5,168L86.5,168z"/>
			</g>
		</g>
		<g>
			<g>
				<path d="M50.5,149.1c5.7-0.5,11-5.6,14.6-9.7c1.3-1.4-0.8-3.6-2.1-2.1c-2.9,3.3-7.8,8.4-12.5,8.8
					C48.6,146.2,48.6,149.2,50.5,149.1L50.5,149.1z"/>
			</g>
		</g>
		<g>
			<g>
				<path d="M125.1,137.3c1.3,7,8.5,9,14.5,10.1c1.9,0.3,2.7-2.6,0.8-2.9c-5-0.9-11.4-2.1-12.4-8
					C127.7,134.6,124.8,135.4,125.1,137.3L125.1,137.3z"/>
			</g>
		</g>
		<g>
			<g>
				<path d="M56.2,164.3c-1,4.5-4.4,8.1-3.8,13c0.4,2.9,2,6.3,5.3,6.2c3.1-0.1,4.9-3.1,5.2-5.9c0.6-4.7-2.9-7.9-3.9-12.2
					c-0.4-1.9-3.3-1.1-2.9,0.8c0.4,1.9,1.3,3.5,2.2,5.2c0.6,1.1,1.2,2.3,1.5,3.5c0.2,1,0.2,2,0,3.1c-0.1,1.3-0.7,1.7-2.1,1.4
					c-1.4,0.6-2.1,0.2-2.2-1.3c-0.3-0.9-0.4-1.8-0.2-2.7c0.1-1.5,0.6-2.8,1.3-4.2c0.9-2,1.9-3.8,2.4-6
					C59.6,163.2,56.7,162.4,56.2,164.3L56.2,164.3z"/>
			</g>
		</g>
		<g>
			<g>
				<path d="M86.5,180.3c1.8-6.8,9.6-2.7,12.4,0.8c1.2,1.5,3.3-0.6,2.1-2.1c-2.5-3.1-6.1-5.6-10.2-5.3c-3.5,0.2-6.3,2.5-7.2,5.8
					C83.2,181.4,86.1,182.2,86.5,180.3L86.5,180.3z"/>
			</g>
		</g>
	</g>
	<g id="happy" style="display: inline">
		<g>
			<g>
				<path d="M59.8,151.7c0.4,0.2,0.8,0.4,1.2,0.7c1.7,0.9,3.1-1.5,1.5-2.6c-2.1-1.4-5.1-0.6-6.6,1.3c-1.6,2-1.2,4.8,0.9,6.2
					c1.8,1.3,4.6,1.3,6.3-0.3c1.9-1.9,1.4-4.9-0.4-6.6c-1.8-1.7-4.7-1.7-6.3,0.3c-1.4,1.8-1.6,4.6,0,6.4c1.8,2,5.2,1.7,6.8-0.3
					c1.7-2.1,0.8-5.5-1.8-6.5c-1.5-0.6-3.1-0.1-4.2,1c-0.9,1-1.6,2.8-0.9,4c0.8,1.4,3,1.1,4.1,0.3c1.3-0.9,1.9-2.3,1.6-3.9
					c-0.1-0.5-0.6-1-1-1c-1.4-0.2-2.9-0.1-3.8,1.2c-0.7,1-0.7,2.4,0.1,3.3c2,2.4,5.6-0.9,3.4-3.1c-1.4-1.3-3.5,0.8-2.1,2.1
					c-0.1-0.1,1.4-0.7,1.1-0.7h0.5c-0.3-0.3-0.7-0.7-1-1c0.1,0.3-0.4,0.8-0.8,0.7c0.2,0.3,0.5,0.6,0.7,0.9c-0.2-1.1,1.3-1.5,1.8-0.5
					c0.5,1.1-0.6,2-1.7,1.8c-2-0.4-0.9-4.3,1-3.1c0.7,0.5,1.4,1.8,0.7,2.5c-0.6,0.6-1.7,0.5-2.3,0.1c-2.1-1.2,0.7-3.7,2.3-2.6
					c0.5-0.9,1-1.7,1.5-2.6c-0.4-0.2-0.8-0.4-1.2-0.7C59.6,148.2,58.1,150.8,59.8,151.7L59.8,151.7z"/>
			</g>
		</g>
		<g>
			<g>
				<path d="M130.9,151.2c-1.6-1.5-4.3-1.7-5.8,0.1c-1.4,1.6-1,4.3,0.8,5.4c1.9,1.2,4.5-0.1,5-2.3c0.5-2.3-1.9-4-4-3.6
					c-2.2,0.5-3.1,3.1-2.1,5c1.1,2.1,3.9,2.5,5.8,1.2c1.8-1.3,2.3-4,1-5.8c-1.2-1.7-3.7-2.1-5.4-0.9c-2,1.3-1.9,4-0.2,5.6
					c1.6,1.6,4.2,1.4,5.5-0.5c1.1-1.6,0.9-3.9-0.5-5.3c-1.6-1.4-4.1-1.1-5.5,0.3c-1.6,1.5-1.5,3.9,0,5.5c1.5,1.5,4.2,1.4,5.1-0.6
					c0.9-1.9-0.3-4.3-2.2-4.9c-2.2-0.6-4.7,1.3-4.6,3.6c0.1,2.6,3.5,4.4,5.5,2.5c1.7-1.6,1.3-4.9-1.2-5.5c-1.2-0.3-2.5,0.2-3.4,1.1
					c-0.9,0.9-1.7,2.4-0.8,3.5c1.7,1.9,4.7,1,5.6-1.2c0.3-0.8-0.3-1.6-1-1.8c-0.9-0.2-1.5,0.3-1.8,1c0.1-0.2,0,0-0.3,0
					c-0.2,0-0.2,0-0.3-0.2c0.1,0.5,0.3,1,0.4,1.5c0.1-0.3,0.5-1.1,0.9-1c0,0,0.1,0.2,0,0.3s-0.5,0-0.5-0.3c0-0.4,0.5-0.7,0.8-0.5
					c0.2,0.1,0.3,0.5,0.3,0.6s-0.2,0,0,0c-0.2,0-0.4-0.2-0.5-0.4c-0.6-0.8,0.5-1.5,1.2-1.4c0.7,0.2,0.8,1.3,0.2,1.7
					c-0.6,0.3-1.5-0.7-0.9-1.2c0.9-0.8,1.7,0.6,1.3,1.4c-0.5,1-2.4,0.7-1.8-0.4c0-0.1,0.4-0.2,0.6,0c0,0-0.2,0.3-0.5,0.2
					s-0.2-0.7-0.1-0.9c0.3-0.5,1.1-0.3,1.5,0C130.2,154.6,132.3,152.5,130.9,151.2L130.9,151.2z"/>
			</g>
		</g>
		<g>
			<g>
				<path d="M87.8,170.4c4.1-0.8,8.2-1.4,12.4-1.7c-0.3-0.9-0.5-1.9-0.8-2.8c-3.2,2.4-6.5,4.7-9.7,7.1c0.6,0.1,1.2,0.2,1.8,0.2
					c-1.1-1.3-2.3-2.5-3.4-3.8c-0.7,0.7-1.4,1.4-2.1,2.1c1.4,1.3,3.2,2.7,5.3,1.9c1.7-0.7,2.4-2.2,1.9-3.9c-0.2-0.7-0.8-1-1.4-1.1
					c-1.7-0.2-2.9,0.2-4.4,1c-1.2,0.7-0.8,2.9,0.8,2.8c2.4-0.1,4.5-0.5,6.7-1.4c1.5-0.6,1.4-2.9-0.4-2.9c-3-0.1-6.1-0.1-9.1-0.2
					c0,1,0,2,0,3c1.6,0,2.9,0.2,4.4,0.8c0.1-0.9,0.2-1.8,0.4-2.7c-1.5,0.3-2.7,0-3.8-1.1c-0.5,0.8-1,1.7-1.5,2.5
					c1.4,0.3,2.5,0.6,3.8,1.3c0.3-0.9,0.5-1.9,0.8-2.8c-1.6,0-3-0.2-4.6-0.9c-0.4,0.9-0.8,1.8-1.2,2.7c2.3,0.5,4.5,1.1,6.7,2.1
					c0.4-0.9,0.8-1.8,1.2-2.7c-2.1-0.5-4.3-1.1-6.4-1.6c-1.5-0.4-2.4,1.4-1.5,2.5c1.2,1.4,2.4,2.5,4,3.4c1.4,0.9,3.1-1.2,1.8-2.4
					c-1.4-1.2-2.8-2.2-4.4-3c-0.4,0.9-0.8,1.8-1.2,2.7c1.6,0.6,3.1,1.2,4.7,1.9c1.8,0.7,2.6-2.2,0.8-2.9c-1.6-0.6-3.1-1.2-4.7-1.9
					c-1.6-0.6-2.6,2-1.2,2.7s2.6,1.5,3.8,2.5c0.6-0.8,1.2-1.6,1.8-2.4c-1.3-0.8-2.4-1.7-3.4-2.9c-0.5,0.8-1,1.7-1.5,2.5
					c2.1,0.5,4.3,1.1,6.4,1.6c1.6,0.4,2.8-2,1.2-2.7c-2.4-1.1-4.8-1.9-7.4-2.4c-1.6-0.3-2.8,2-1.2,2.7c2,0.9,3.9,1.3,6.1,1.3
					c1.4,0,2.1-2.1,0.8-2.8c-1.5-0.8-2.9-1.3-4.5-1.7c-1.3-0.3-2.7,1.5-1.5,2.5c2,1.7,4.1,2.3,6.7,1.8c1.2-0.2,1.5-2.2,0.4-2.7
					c-2-0.9-3.8-1.3-5.9-1.2c-1.9,0-1.9,3,0,3c3,0.1,6.1,0.1,9.1,0.2c-0.1-1-0.3-2-0.4-2.9c-1.9,0.8-3.8,1.2-5.9,1.3
					c0.3,0.9,0.5,1.9,0.8,2.8c0.9-0.6,1.8-0.9,2.9-0.6c-0.5-0.4-1-0.7-1.4-1.1c-0.9,0.1-1.7-0.2-2.2-1c-1.4-1.3-3.4,0.7-2.1,2.1
					c1.1,1.3,2.3,2.5,3.4,3.8c0.4,0.4,1.3,0.6,1.8,0.2c3.2-2.4,6.5-4.7,9.7-7.1c1.1-0.8,0.9-2.9-0.8-2.8c-4.4,0.4-8.8,1-13.2,1.8
					C85.1,167.8,85.9,170.7,87.8,170.4L87.8,170.4z"/>
			</g>
		</g>
		<g>
			<g>
				<path d="M89,173.1c-1.7,3.6-3.9,6.9-6.7,9.7c-1.3,1.4,0.8,3.5,2.1,2.1c3-3,5.4-6.5,7.2-10.3C92.4,172.9,89.8,171.4,89,173.1
					L89,173.1z"/>
			</g>
		</g>
		<g>
			<g>
				<path d="M88.4,175.6c3.6,3,7.4,5.5,11.7,7.4c1.7,0.8,3.3-1.8,1.5-2.6c-4-1.8-7.7-4.1-11.1-6.9C89,172.3,86.9,174.4,88.4,175.6
					L88.4,175.6z"/>
			</g>
		</g>
		<g>
			<g>
				<path d="M81.6,184.1c-0.5,5.9,0.1,16,7.8,16.8c9.1,1,12.5-10.4,13.9-17.3c0.4-1.9-2.5-2.7-2.9-0.8c-1,5.2-3.3,15.4-10.2,15.2
					c-6.2-0.2-6-9.5-5.6-13.8C84.7,182.2,81.7,182.2,81.6,184.1L81.6,184.1z"/>
			</g>
		</g>
		<g>
			<g>
				<path d="M88.6,176.7c0,4.3,0.3,8.6,1,12.9c0.3,1.9,3.2,1.1,2.9-0.8c-0.6-4-0.9-8-0.9-12.1C91.7,174.7,88.7,174.7,88.6,176.7
					L88.6,176.7z"/>
			</g>
		</g>
		<g>
			<g>
				<path d="M86.5,168c-1.3,0.2-2.7,0.2-4.1,0.2c0.1,1,0.3,2,0.4,2.9c0.9-0.3,1.8-0.4,2.8-0.3c0-1,0-2,0-3c-0.9-0.1-1.7,0-2.5,0.2
					c-1.9,0.4-1.1,3.3,0.8,2.9c0.6-0.1,1.1-0.1,1.7-0.1c0.8,0.1,1.5-0.7,1.5-1.5c0-0.9-0.7-1.4-1.5-1.5c-1.2-0.1-2.4,0-3.6,0.4
					c-1.6,0.6-1.3,2.9,0.4,2.9c1.6,0.1,3.2,0,4.8-0.3c0.8-0.1,1.2-1.1,1-1.8C88.1,168.2,87.3,167.9,86.5,168L86.5,168z"/>
			</g>
		</g>
	</g>
	<g id="angry" style="display: none">
		<g>
			<g>
				<path d="M59.8,151.7c0.4,0.2,0.8,0.4,1.2,0.7c1.7,0.9,3.1-1.5,1.5-2.6c-2.1-1.4-5.1-0.6-6.6,1.3c-1.6,2-1.2,4.8,0.9,6.2
					c1.8,1.3,4.6,1.3,6.3-0.3c1.9-1.9,1.4-4.9-0.4-6.6c-1.8-1.7-4.7-1.7-6.3,0.3c-1.4,1.8-1.6,4.6,0,6.4c1.8,2,5.2,1.7,6.8-0.3
					c1.7-2.1,0.8-5.5-1.8-6.5c-1.5-0.6-3.1-0.1-4.2,1c-0.9,1-1.6,2.8-0.9,4c0.8,1.4,3,1.1,4.1,0.3c1.3-0.9,1.9-2.3,1.6-3.9
					c-0.1-0.5-0.6-1-1-1c-1.4-0.2-2.9-0.1-3.8,1.2c-0.7,1-0.7,2.4,0.1,3.3c2,2.4,5.6-0.9,3.4-3.1c-1.4-1.3-3.5,0.8-2.1,2.1
					c-0.1-0.1,1.4-0.7,1.1-0.7h0.5c-0.3-0.3-0.7-0.7-1-1c0.1,0.3-0.4,0.8-0.8,0.7c0.2,0.3,0.5,0.6,0.7,0.9c-0.2-1.1,1.3-1.5,1.8-0.5
					c0.5,1.1-0.6,2-1.7,1.8c-2-0.4-0.9-4.3,1-3.1c0.7,0.5,1.4,1.8,0.7,2.5c-0.6,0.6-1.7,0.5-2.3,0.1c-2.1-1.2,0.7-3.7,2.3-2.6
					c0.5-0.9,1-1.7,1.5-2.6c-0.4-0.2-0.8-0.4-1.2-0.7C59.6,148.2,58.1,150.8,59.8,151.7L59.8,151.7z"/>
			</g>
		</g>
		<g>
			<g>
				<path d="M130.9,151.2c-1.6-1.5-4.3-1.7-5.8,0.1c-1.4,1.6-1,4.3,0.8,5.4c1.9,1.2,4.5-0.1,5-2.3c0.5-2.3-1.9-4-4-3.6
					c-2.2,0.5-3.1,3.1-2.1,5c1.1,2.1,3.9,2.5,5.8,1.2c1.8-1.3,2.3-4,1-5.8c-1.2-1.7-3.7-2.1-5.4-0.9c-2,1.3-1.9,4-0.2,5.6
					c1.6,1.6,4.2,1.4,5.5-0.5c1.1-1.6,0.9-3.9-0.5-5.3c-1.6-1.4-4.1-1.1-5.5,0.3c-1.6,1.5-1.5,3.9,0,5.5c1.5,1.5,4.2,1.4,5.1-0.6
					c0.9-1.9-0.3-4.3-2.2-4.9c-2.2-0.6-4.7,1.3-4.6,3.6c0.1,2.6,3.5,4.4,5.5,2.5c1.7-1.6,1.3-4.9-1.2-5.5c-1.2-0.3-2.5,0.2-3.4,1.1
					c-0.9,0.9-1.7,2.4-0.8,3.5c1.7,1.9,4.7,1,5.6-1.2c0.3-0.8-0.3-1.6-1-1.8c-0.9-0.2-1.5,0.3-1.8,1c0.1-0.2,0,0-0.3,0
					c-0.2,0-0.2,0-0.3-0.2c0.1,0.5,0.3,1,0.4,1.5c0.1-0.3,0.5-1.1,0.9-1c0,0,0.1,0.2,0,0.3s-0.5,0-0.5-0.3c0-0.4,0.5-0.7,0.8-0.5
					c0.2,0.1,0.3,0.5,0.3,0.6s-0.2,0,0,0c-0.2,0-0.4-0.2-0.5-0.4c-0.6-0.8,0.5-1.5,1.2-1.4c0.7,0.2,0.8,1.3,0.2,1.7
					c-0.6,0.3-1.5-0.7-0.9-1.2c0.9-0.8,1.7,0.6,1.3,1.4c-0.5,1-2.4,0.7-1.8-0.4c0-0.1,0.4-0.2,0.6,0c0,0-0.2,0.3-0.5,0.2
					s-0.2-0.7-0.1-0.9c0.3-0.5,1.1-0.3,1.5,0C130.2,154.6,132.3,152.5,130.9,151.2L130.9,151.2z"/>
			</g>
		</g>
		<g>
			<g>
				<path d="M83.5,171.3c0.5,0.3,1,0.5,1.4,0.8c0.8,0.8,1.7,1.5,2.8,2.1c0.4,0.3,0.8,0.3,1.2,0.1c0.2,0.2,0.4,0.4,0.6,0.6
					c0.7,0.1,1.4,0,2.2,0c2.8-2.1,5.7-4.2,8.6-6.3l0,0l0,0c0.3-0.2,0.5-0.4,0.8-0.6c1.1-0.8,0.9-2.9-0.8-2.8
					c-4.4,0.4-8.8,1-13.2,1.8c-0.1,0.1-0.3,0.1-0.4,0.2c-0.3-0.1-0.7-0.2-1-0.3c-0.5-0.1-1.1,0.1-1.4,0.5c-1.3,0-2.3,1.7-1.3,2.5
					C82.8,170.5,83,171,83.5,171.3z"/>
			</g>
		</g>
		<g>
			<g>
				<path d="M88.8,174.9c0.9,0.1,1.7,0.1,2.6,0.1c0.1-0.1,0.1-0.2,0.2-0.4c0.8-1.7-1.8-3.2-2.6-1.5c-0.3,0.5-0.5,1.1-0.8,1.6
					C88.4,174.7,88.6,174.8,88.8,174.9z"/>
			</g>
		</g>
		<g>
			<g>
				<path d="M88.8,174.9c1,0.2,2,0.1,3.1,0.1H92c0.1,0,0.2,0,0.3-0.1c-0.6-0.5-1.2-0.9-1.8-1.4c-1.2-0.9-2.6,0.1-2.6,1.2
					C88.2,174.7,88.5,174.8,88.8,174.9z"/>
			</g>
		</g>
		<g>
			<g>
				<path d="M86.5,168c-1.3,0.2-2.7,0.2-4.1,0.2c0.1,1,0.3,2,0.4,2.9c0.9-0.3,1.8-0.4,2.8-0.3c0-1,0-2,0-3c-0.9-0.1-1.7,0-2.5,0.2
					c-1.9,0.4-1.1,3.3,0.8,2.9c0.6-0.1,1.1-0.1,1.7-0.1c0.8,0.1,1.5-0.7,1.5-1.5c0-0.9-0.7-1.4-1.5-1.5c-1.2-0.1-2.4,0-3.6,0.4
					c-1.6,0.6-1.3,2.9,0.4,2.9c1.6,0.1,3.2,0,4.8-0.3c0.8-0.1,1.2-1.1,1-1.8C88.1,168.2,87.3,167.9,86.5,168L86.5,168z"/>
			</g>
		</g>
		<g>
			<g>
				<path d="M59.6,138.3c1.1,3.5,2.3,7,3.7,10.5c0.9,2.1,1.8,5.9,3.6,7.4c0.9,0.8,2.1,0.4,2.5-0.7v-0.1c0.3-0.8-0.4-1.6-1-1.8h-0.1
					c-1.8-0.7-2.6,2.2-0.8,2.9h0.1c-0.3-0.6-0.7-1.2-1-1.8v0.1c0.8-0.2,1.7-0.4,2.5-0.7c-0.8-0.7-1.2-2.5-1.7-3.5
					c-0.7-1.7-1.4-3.4-2.1-5.1c-1-2.6-1.9-5.3-2.8-8C61.9,135.7,59.1,136.5,59.6,138.3L59.6,138.3z"/>
			</g>
		</g>
		<g>
			<g>
				<path d="M120.9,155.1c4.4-5.2,8.8-10.4,13.2-15.6c1.2-1.5-0.9-3.6-2.1-2.1c-4.4,5.2-8.8,10.4-13.2,15.6
					C117.6,154.5,119.7,156.6,120.9,155.1L120.9,155.1z"/>
			</g>
		</g>
		<g>
			<g>
				<path d="M90.9,173.1c-4.9,1.7-14,4.5-13.5,11.2c0.6,7.8,10.9,8.6,16.7,8.3c5.5-0.3,15.2-1.9,15.1-9.2c0-8.8-13.5-8.8-19.3-10
					c-1.9-0.4-2.7,2.5-0.8,2.9c4.2,0.9,10.2,0.8,14,3c4.6,2.6,3,6.8-1.1,8.7c-2.2,1-4.8,1.4-7.2,1.6c-3.4,0.3-12.8,0.7-13.9-3.6
					c-0.9-3.2,1.5-5.8,3.9-7.1c2.1-1.2,4.5-2,6.8-2.8C93.6,175.4,92.8,172.5,90.9,173.1L90.9,173.1z"/>
			</g>
		</g>
		<g>
			<g>
				<path d="M81,179.1c1.7,4.1,3.3,8.3,5,12.4c0.5,1.2,2.7,1.7,2.9,0c0.8-5.7,1.9-11.3,3.4-16.9c-1,0-1.9,0-2.9,0
					c1.8,4.9,3.5,9.8,5.3,14.6c0.4,1.2,2.7,1.6,2.9,0c0.2-1.5,0.3-3,0.5-4.5s0.3-3,0.6-4.4c0.2-1,1-2.1,0.2-2.2
					c-1.1-0.1,0.8,2,1.1,2.4c0.6,0.9,1.2,1.9,1.8,2.9c0.9,1.6,1.8,3.2,2.8,4.8c1,1.7,3.6,0.1,2.6-1.5c-1.5-2.5-4.9-11.6-8.5-11.5
					c-3.9,0.2-3.5,10.7-3.9,13.3c1,0,1.9,0,2.9,0c-1.8-4.9-3.5-9.8-5.3-14.6c-0.5-1.3-2.5-1.5-2.9,0c-1.5,5.6-2.6,11.2-3.4,16.9
					c1,0,1.9,0,2.9,0c-1.7-4.1-3.3-8.3-5-12.4C83.1,176.6,80.2,177.3,81,179.1L81,179.1z"/>
			</g>
		</g>
		<g>
			<g>
				<path d="M108.5,147.1c-0.1,3.4,1.3,6.7,4,8.9c1.5,1.2,3.6-0.9,2.1-2.1c-2.1-1.7-3.2-4.1-3.1-6.8
					C111.6,145.1,108.6,145.1,108.5,147.1L108.5,147.1z"/>
			</g>
		</g>
	</g>
</g>
<g id="body">
	<g id="alert" style="display: inline">
		<g>
			<g>
				<g>
					<path d="M31.4,119.5c4.4-12.4,11-23.6,19.8-33.4c-0.9-0.4-1.7-0.7-2.6-1.1c0.2,11,0.1,22-0.1,33c0,1.1,1,1.6,1.9,1.4
						c22-3.1,44.2-4.3,66.4-3.7c5.2,0.2,10.5,0.5,15.7,0.8c3.2,0.2,5.7,0.4,7.9-2.1c3.1-3.5,5.4-8,8-11.8c3.1-4.6,6.2-9.2,9.3-13.9
						c-0.9-0.3-1.9-0.5-2.8-0.8c-1.1,10.6-0.7,21.1,1.1,31.5c0.3,1.9,3.2,1.1,2.9-0.8c-1.7-10.2-2.1-20.4-1-30.7
						c0.2-1.6-2-1.9-2.8-0.8c-2.9,4.3-5.9,8.7-8.8,13c-2.2,3.3-4.7,8.8-7.7,11.4c-4.1,3.6-12.9,1.3-18,1.1
						c-4.6-0.2-9.2-0.3-13.8-0.3c-19.2-0.1-38.3,1.3-57.3,3.9c0.6,0.5,1.3,1,1.9,1.4c0.2-11,0.3-22,0.1-33c0-1.2-1.7-2.1-2.6-1.1
						c-9.1,10.2-16,21.9-20.5,34.8C27.9,120.6,30.8,121.3,31.4,119.5L31.4,119.5z"/>
				</g>
			</g>
			<g>
				<g>
					<path d="M28,120.3c-4.9,3.5-9.9,6.9-14.8,10.4c-1,0.7-0.9,2.3,0.4,2.7c3.4,1,6.8,2,10.1,3.1c-0.2-0.8-0.4-1.7-0.7-2.5
						c-5.8,4.8-11.4,9.9-16.7,15.2c-0.7,0.7-0.5,1.9,0.3,2.4c3.2,1.9,6.3,3.2,9.9,4.3c-0.2-0.8-0.4-1.7-0.7-2.5
						c-2.2,2.6-4.5,5.1-6.7,7.7c-0.7,0.8-0.5,2.3,0.7,2.5c4.1,0.6,8.3,1.3,12.4,1.9c-0.2-0.8-0.4-1.7-0.7-2.5
						c-2.7,2.9-5.4,5.9-8.1,8.8c-0.8,0.9-0.4,2.1,0.7,2.5c2.8,1,5.4,2.2,7.9,3.8c-0.2-0.7-0.4-1.4-0.5-2.1
						c-3.1,4.3-6.2,8.6-9.3,12.9c-0.6,0.8,0.1,1.9,0.9,2.2c4.8,1.6,9.6,2.5,14.6,2.8c-0.4-0.8-0.9-1.5-1.3-2.3
						c-3.6,5-6.6,10.2-9.1,15.9c-0.4,0.8-0.1,2,0.9,2.2c4.3,0.9,8.5,1.1,12.8,0.6c-0.4-0.8-0.9-1.5-1.3-2.3c-2.1,3.6-4.4,7-7,10.3
						c-0.9,1-0.3,2.4,1.1,2.6c3.7,0.4,6.6,0.7,10-1c-0.7-0.2-1.4-0.4-2.1-0.5c2.5,4.1,0.8,8.7,0.2,13.1c-0.2,1.1,0.6,2.2,1.8,1.8
						c2.7-0.7,5.4-1.4,8.2-2.1c-0.6-0.5-1.3-1-1.9-1.4c-0.3,4.6-1.2,8.8-2.7,13.2c-0.5,1.4,1.1,2.2,2.2,1.7c2.3-1,6.2-3.9,8.8-3.3
						c4.9,1.1,1,8.9,1.3,12c0.1,1.1,1.2,1.9,2.3,1.3c1-0.6,2.5-1.4,2.3-2.8c-0.1-0.6-0.4-1.3-1.1-1.4c-1.9-0.3-2.9,0.9-3.4,2.6
						c-0.4,1.3,1.1,2.3,2.2,1.7c1.7-0.9,3.4-1.8,5.1-2.6c1.7-0.8,0.2-3.4-1.5-2.6c-1.7,0.8-3.4,1.7-5.1,2.6c0.7,0.6,1.5,1.1,2.2,1.7
						c-0.1-0.2-0.2-0.3-0.3-0.5c-0.4-0.5-0.7-1-1.1-1.4c-0.3,0.1-0.5,0.2-0.8,0.2c0.8,0.4,1.5,0.9,2.3,1.3
						c-0.5-4.5,4.5-11.9-1.7-14.6c-4.2-1.8-9.2,1.6-12.9,3.3c0.7,0.6,1.5,1.1,2.2,1.7c1.6-4.6,2.5-9.2,2.8-14c0.1-1-1-1.7-1.9-1.4
						c-2.7,0.7-5.4,1.4-8.2,2.1c0.6,0.6,1.2,1.2,1.8,1.8c0.7-5.3,2.5-10.5-0.6-15.4c-0.4-0.7-1.3-0.9-2.1-0.5
						c-2.9,1.5-5.5,0.9-8.5,0.6c0.4,0.9,0.7,1.7,1.1,2.6c2.8-3.4,5.3-7,7.5-10.9c0.5-0.9-0.1-2.4-1.3-2.3c-4.1,0.5-8,0.3-12-0.5
						c0.3,0.7,0.6,1.5,0.9,2.2c2.5-5.6,5.5-10.9,9.1-15.9c0.7-1-0.3-2.2-1.3-2.3c-4.8-0.3-9.2-1.2-13.8-2.7c0.3,0.7,0.6,1.5,0.9,2.2
						c3.1-4.3,6.2-8.6,9.3-12.9c0.5-0.7,0.1-1.7-0.5-2.1c-2.7-1.7-5.5-3-8.6-4.1c0.2,0.8,0.4,1.7,0.7,2.5c2.7-2.9,5.4-5.9,8.1-8.8
						c0.7-0.7,0.5-2.3-0.7-2.5c-4.1-0.6-8.3-1.3-12.4-1.9c0.2,0.8,0.4,1.7,0.7,2.5c2.2-2.6,4.5-5.1,6.7-7.7c0.7-0.9,0.5-2.2-0.7-2.5
						c-3.2-1-6.2-2.3-9.1-4c0.1,0.8,0.2,1.6,0.3,2.4c5.3-5.3,10.9-10.4,16.7-15.2c0.9-0.8,0.3-2.2-0.7-2.5c-3.4-1-6.8-2-10.1-3.1
						c0.1,0.9,0.2,1.8,0.4,2.7c4.9-3.5,9.9-6.9,14.8-10.4C31.1,121.8,29.6,119.2,28,120.3L28,120.3z"/>
				</g>
			</g>
			<g>
				<g>
					<path d="M77.2,273.4c0.4,0.1,0.8,0.3,1.2,0.5c0.7,0.4,1.4,0.9,2,1.4c-0.1-0.7-0.1-1.3-0.2-1.9C80,271.4,77,271.4,77.2,273.4
						C77.2,273.3,77.2,273.4,77.2,273.4z"/>
				</g>
			</g>
			<g>
				<g>
					<path d="M158.6,122.9c4.9-1.5,9.7-1.8,14.8-1.2c-0.4-0.8-0.9-1.5-1.3-2.3c-1.7,3.1-3.7,5.9-6,8.5c-0.7,0.8-0.5,2.2,0.7,2.5
						c1.7,0.5,5.9,0.8,7,2.1c0.9,1.1,0.3,1.6-0.3,3.1c-0.6,1.4-1.1,2.9-1.7,4.3c-0.3,0.7,0.3,1.7,1,1.8c2.3,0.3,6.6,0.1,8.6,1.2
						c2.5,1.3,0.9,4.5,0,6.9c-0.7,1.8,2.2,2.6,2.9,0.8c0.9-2.2,3.1-7,1.2-9.3c-2.2-2.6-9-2-12-2.4c0.3,0.6,0.7,1.2,1,1.8
						c0.9-2.3,4.3-7.3,2.6-9.9c-1.6-2.4-7.3-2.6-9.8-3.3c0.2,0.8,0.4,1.7,0.7,2.5c2.5-2.8,4.6-5.8,6.5-9.1c0.6-1.1-0.2-2.1-1.3-2.3
						c-5.4-0.7-10.5-0.3-15.6,1.3C155.9,120.6,156.7,123.5,158.6,122.9L158.6,122.9z"/>
				</g>
			</g>
			<g>
				<g>
					<path d="M28.6,209.3C28.6,209.5,28.6,209.5,28.6,209.3c-0.1,0.2-0.1,0.3-0.2,0.4c-0.1,0.1-0.1,0.2-0.2,0.3
						c0.1-0.1,0.1-0.1-0.1,0.1c0.8,0.6,1.6,1.2,2.4,1.8c0.2-0.4,0.5-0.9,0.7-1.3C30.4,210.1,29.5,209.8,28.6,209.3
						c-0.1,0.2-0.1,0.2-0.1,0.1c0-0.1,0.1-0.2,0.3-0.3c-0.6,0.5-1,1.3-0.5,2.1c0.4,0.6,1.4,1,2.1,0.5c0.5-0.4,0.9-0.9,1.1-1.6
						c0.4-1.6-1.9-2.7-2.7-1.2c-0.2,0.4-0.5,0.9-0.7,1.3c-0.4,0.7-0.2,1.5,0.4,1.9s1.5,0.5,2-0.1s0.9-1.2,1.2-2
						c0.3-0.7-0.3-1.7-1-1.8C29.6,208.1,28.9,208.5,28.6,209.3L28.6,209.3z"/>
				</g>
			</g>
			<g>
				<g>
					<path d="M28.4,120c-0.1,0.3-0.2,0.6-0.3,0.9c1,0.1,2,0.3,2.9,0.4c0.1-0.9,0.3-1.8,0.5-2.6c0.6-1.9-2.3-2.6-2.9-0.8
						c-0.3,1.1-0.5,2.3-0.6,3.4c-0.1,0.7,0.6,1.4,1.3,1.5c0.7,0.1,1.4-0.3,1.6-1.1c0.1-0.3,0.2-0.6,0.3-0.9
						C31.8,118.9,28.9,118.1,28.4,120L28.4,120z"/>
				</g>
			</g>
			<g>
				<g>
					<path d="M156.5,119c-0.2,1.1-0.1,2,0.4,3c0.3,0.6,1.1,0.9,1.7,0.7c0.6-0.2,1.2-0.8,1.1-1.4c-0.1-0.9-0.2-1.7-0.3-2.6
						c-0.1-0.8-0.6-1.5-1.5-1.5c-0.7,0-1.6,0.7-1.5,1.5c0.1,0.9,0.2,1.7,0.3,2.6c0.9-0.3,1.9-0.5,2.8-0.8c0,0.1,0,0.1,0-0.1
						c0-0.1-0.1-0.2-0.1-0.3c0,0.3,0.1-0.5,0-0.2c0.1-0.8-0.2-1.6-1-1.8C157.6,117.8,156.6,118.2,156.5,119L156.5,119z"/>
				</g>
			</g>
			<g>
				<g>
					<path d="M136.3,283c0.1,0.1,0.2,0.2,0.4,0.3c0-1.2,0-2.5,0-3.7c0-1.9-3-1.9-3,0c0,0.7,0,1.4,0,2
						C134.5,282,135.4,282.5,136.3,283z"/>
					<path d="M122.1,280.3c0.7,0,1.3,0.1,1.9,0.2c0-0.9-0.1-1.8-0.1-2.7c-0.3-2-3.3-2-3.3-0.1c0,0.9,0.1,1.8,0.1,2.7
						C121.1,280.3,121.6,280.3,122.1,280.3z"/>
				</g>
			</g>
			<g>
				<g>
					<path d="M239.8,163.4c-5.3-4.8-11.4-7.7-17.9-9.6c-0.2,0-0.3-0.1-0.5-0.1c-0.4-0.1-0.8-0.2-1.2-0.3c-0.4,0-0.7-0.1-1.1-0.2
						c-0.4-0.1-0.9-0.2-1.3-0.3c-0.2,0-1.2-0.2-0.6-0.1c-0.7-0.1-1.4-0.3-2-0.6c-10.6-1.9-21.9-1.7-32.5-2.1c-2-0.1-2,2.9,0,3
						c18.6,0.7,40.1-0.9,55,12.4C239.1,166.8,241.3,164.7,239.8,163.4z"/>
				</g>
			</g>
			<g>
				<g>
					<path d="M222.4,153.9c-0.4,0-0.8-0.1-1.1-0.2c-0.2-0.1-0.4-0.2-0.6-0.2c-0.1,0-0.3,0-0.4,0c-0.4,0-0.8-0.1-1.2-0.2
						c-0.4-0.1-0.9-0.2-1.3-0.3c-0.1,0-0.5-0.1-0.7-0.1c0.8,0.8,1.7,1.5,2.5,2.4c1.5,0.9,3.1-0.1,3.2-1.2
						C222.7,153.9,222.5,153.9,222.4,153.9z"/>
				</g>
			</g>
			<g>
				<g>
					<path d="M214.9,283.9c0.8,0.2,1.7,0.4,2.5,0.6c-0.1-1.7-0.1-3.5-0.2-5.2c-0.1-1.9-3.1-1.9-3,0c0.1,1.5,0.1,3.1,0.2,4.6
						C214.5,283.8,214.7,283.8,214.9,283.9z"/>
				</g>
			</g>
			<g>
				<g>
					<path d="M231,286.2c0.1-3,0.3-6,0.7-8.9c0.2-1.9-2.8-1.9-3,0c-0.4,2.8-0.5,5.6-0.7,8.4C229,285.9,230,286,231,286.2z"/>
				</g>
			</g>
			<g>
				<g>
					<path d="M134.8,281.1c26.8,4.5,53.8,1.6,80.6-1.6c1.9-0.2,1.9-3.2,0-3c-26.5,3.2-53.3,6.2-79.8,1.7
						C133.7,277.9,132.9,280.7,134.8,281.1L134.8,281.1z"/>
				</g>
			</g>
			<g>
				<g>
					<path d="M167.4,285c0.7-0.8,1.7-1.3,2.9-1.5c0-0.3-0.1-0.7-0.1-1c-0.2-1.9-3.2-1.9-3,0C167.3,283.3,167.4,284.2,167.4,285z"/>
					<path d="M158.9,287.3c-0.1-1.7,0-3.3,0.2-4.9c0.3-1.9-2.6-2.7-2.9-0.8c-0.3,1.9-0.3,3.7-0.2,5.6
						C157,287.3,157.9,287.3,158.9,287.3z"/>
				</g>
			</g>
			<g>
				<g>
					<path d="M121.2,276.9c-14.3-0.2-28.6-0.5-42.4-4.7c-1-0.3-1.7,0.3-1.8,1.1c0.5,0.1,1,0.3,1.5,0.6c1.1,0.6,2.1,1.4,3,2.2
						c13,3.4,26.4,3.7,39.8,3.8C123.1,279.9,123.1,276.9,121.2,276.9z"/>
				</g>
			</g>
			<g>
				<g>
					<path d="M65,276.4c0.6-1,1.2-2.1,1.8-3.1c0.3-0.5,0.7-1,1.1-1.3c-0.3,0-0.7,0.1-1,0.4c-1.9,1.5-3.8,2.6-5.9,3.5
						c0.5-4,1.2-8,2.3-11.9c0.3-1.1-0.7-2.2-1.8-1.8c-2.4,0.7-4.7,1.3-7.1,2c0.9-2.5,1.8-5,2.6-7.6c0.6-1.8,1.6-3.5,0.9-5.3
						c-0.7-1.7-3.6-0.9-2.9,0.9c0.6,1.7-1.3,4.9-1.8,6.5c-0.9,2.4-1.7,4.9-2.6,7.3c-0.4,1.1,0.8,2.1,1.8,1.8c2.5-0.7,4.9-1.4,7.4-2
						c-1,4.1-1.7,8.2-2.1,12.3c-0.1,1,1,1.7,1.9,1.4c1.6-0.5,3.1-1.1,4.6-1.9C64.4,277.1,64.7,276.8,65,276.4z"/>
				</g>
			</g>
			<g>
				<g>
					<path d="M256.9,206.2c-0.3-0.3-0.5-0.6-0.8-1c-1-0.5-2.6,0.3-2.1,1.7c1.7,5.7,3.4,11.6,5,17.4c-2-1-3.8-2.1-5.6-3.3
						c-1.2-0.8-2.4,0.5-2.2,1.7c1.6,8.1,2.8,16.3,3.7,24.5c-2.1-1.2-4.3-2.5-6.4-3.7c-1.2-0.7-2.4,0.4-2.2,1.7
						c1,5.3,1.4,10.5,1.2,15.9c-4.2-1-8.4-2-12.5-3c-1.1-0.3-2.1,0.7-1.8,1.8c1.4,5.5,4.4,12.9,4.2,18.9c-1.8-0.8-3.7-1.7-5.5-2.5
						c-1.7-0.9-3.3,1.7-1.5,2.5c2.5,1.1,5,2.3,7.5,3.4c0.8,0.4,2,0.1,2.2-0.9c1.2-6.4-1.5-13.6-3.4-19.9c4,0.9,8,1.9,11.9,2.8
						c1,0.2,1.8-0.5,1.9-1.4c0.2-5.1,0-10.1-0.7-15.2c2.1,1.2,4.2,2.4,6.2,3.6c0.9,0.5,2.4-0.1,2.3-1.3c-0.8-8.2-1.9-16.5-3.4-24.6
						c1.9,1.2,3.9,2.2,6,2.9c1.1,0.4,2.1-0.8,1.8-1.8C260.8,219.6,258.9,212.9,256.9,206.2z"/>
				</g>
			</g>
		</g>
		<g>
			<g>
				<path d="M219.4,153.9c-1.6-4.4-3.7-8.5-6.4-12.4c-0.6,0.7-1.1,1.5-1.7,2.2c3.5,0.6,6.8,1.5,10.1,2.8c0.8,0.3,2-0.5,1.9-1.4
					c-0.8-6.5-1.7-13.1-2.5-19.6c-0.6,0.5-1.3,1-1.9,1.4c4.5,1.8,8.9,4,13.1,6.4c0.8,0.5,1.9,0,2.2-0.9c2-6.7,2.9-13.5,2.9-20.5
					c-0.9,0.4-1.7,0.7-2.6,1.1c2.6,3.2,5.2,6.4,7.9,9.6c1.3,1.5,2.6,3.5,4.8,3.3c2.6-0.2,5.2-3.4,6.9-5c3.1-2.8,6-5.8,8.8-8.9
					c-0.8-0.2-1.7-0.4-2.5-0.7c0.9,3.4,1.9,6.8,3.2,10.1c0.6,1.6,1.3,3.9,3.1,4.5c1.9,0.7,3.4-0.5,4.9-1.5c3.4-2.2,6.6-4.7,9.9-7
					c-0.7-0.3-1.5-0.6-2.2-0.9c1.1,7.8,1.2,15.5,0.1,23.3c-0.1,0.8,0.8,1.6,1.5,1.5c3.9-0.3,7.6-1,11.3-2.2
					c-0.6-0.6-1.2-1.2-1.8-1.8c-1.2,6.4-3.4,12.4-6.7,18.1c-0.4,0.8-0.1,2,0.9,2.2c5.8,1.1,11.4,2.6,16.9,4.6
					c-0.2-0.8-0.4-1.7-0.7-2.5c-3.7,4.5-7.5,9-11.2,13.5c-0.6,0.8-0.6,2.3,0.7,2.5c4.2,0.7,8.5,1.4,12.7,2.2
					c-0.3-0.7-0.6-1.5-0.9-2.2c-5.7,7.6-12.8,13.7-21,18.4c-1.2,0.7-0.8,2.3,0.4,2.7c4.4,1.7,8,4.3,10.9,8.1
					c0.2-0.7,0.4-1.4,0.5-2.1c-7.9,3.8-16.2,6.5-24.8,8.2c-0.8,0.2-1.3,1.1-1,1.8c0.8,2.7,1.8,5.2,3.3,7.6c0.4-0.8,0.9-1.5,1.3-2.3
					c-4.2-0.3-8.3-0.5-12.5-0.8c-1.9-0.1-1.9,2.9,0,3c4.2,0.3,8.3,0.5,12.5,0.8c1.1,0.1,1.9-1.3,1.3-2.3c-1.4-2.2-2.3-4.4-3-6.9
					c-0.3,0.6-0.7,1.2-1,1.8c8.9-1.7,17.4-4.5,25.5-8.5c0.7-0.3,1-1.4,0.5-2.1c-3.4-4.4-7.5-7.5-12.7-9.5c0.1,0.9,0.2,1.8,0.4,2.7
					c8.7-4.9,16.1-11.5,22.1-19.5c0.6-0.7,0-2.1-0.9-2.2c-4.2-0.7-8.5-1.4-12.7-2.2c0.2,0.8,0.4,1.7,0.7,2.5
					c3.7-4.5,7.5-9,11.2-13.5c0.7-0.9,0.5-2.1-0.7-2.5c-5.5-2-11.1-3.5-16.9-4.6c0.3,0.7,0.6,1.5,0.9,2.2c3.4-5.9,5.7-12.1,7-18.8
					c0.2-1.1-0.7-2.2-1.8-1.8c-3.5,1.1-6.9,1.8-10.5,2.1c0.5,0.5,1,1,1.5,1.5c1.1-8.1,0.9-16.1-0.2-24.1c-0.1-0.9-1.5-1.4-2.2-0.9
					c-2,1.4-4,2.9-6.1,4.3c-1,0.7-3.5,3.2-4.6,3.2c-4.1,0-5.3-9.3-6-11.9c-0.3-1.1-1.7-1.5-2.5-0.7c-3.2,3.5-7.2,9.1-11.5,11.3
					c-3.7,2-5-1-7-3.4c-1.9-2.3-3.8-4.6-5.6-6.9c-0.9-1-2.6-0.2-2.6,1.1c0,6.7-0.9,13.3-2.8,19.8c0.7-0.3,1.5-0.6,2.2-0.9
					c-4.4-2.6-9-4.8-13.8-6.7c-0.8-0.3-2,0.5-1.9,1.4c0.8,6.5,1.7,13.1,2.5,19.6c0.6-0.5,1.3-1,1.9-1.4c-3.3-1.3-6.6-2.2-10.1-2.8
					c-1.2-0.2-2.5,1-1.7,2.2c2.5,3.7,4.5,7.5,6.1,11.7C217.1,156.5,220,155.7,219.4,153.9L219.4,153.9z"/>
			</g>
		</g>
		<g class="frontpaws">
			<g>
				<g>
					<path d="M65.2,320.7c-4.4,8.9,11.9,12.9,16.4,5.6c3.9-6.3,2.4-15.6,1.6-22.4c-1.1-10.2-2-20.3-3-30.5c-0.2-1.9-3.2-1.9-3,0
						c1.1,11.3,2.3,22.6,3.4,33.8c0.5,5.1,1.2,11.3-0.9,16.2c-1.2,2.8-3.5,4.4-6.6,4c-2-0.3-6.8-2.1-5.3-5.1
						C68.6,320.5,66,319,65.2,320.7L65.2,320.7z"/>
				</g>
			</g>
			<g>
				<g>
					<path d="M67.1,274.8c2.1,12.7,3.7,25.4,4.6,38.2c0.1,1.9,3.1,1.9,3,0c-0.9-13.1-2.5-26.1-4.7-39
						C69.7,272.1,66.8,273,67.1,274.8L67.1,274.8z"/>
				</g>
			</g>

			<g>
				<g>
					<path d="M122,326.5c0.9-0.7,2.1-1,3.2-0.9c1.4-15.9-0.8-31.8-1.4-47.7c-0.3-2-3.3-2-3.3-0.1C121.2,293.9,124.1,310.4,122,326.5
						z"/>
					<path d="M136.5,282.5c-1.8-1-2.3-2.6-2.1-4.1c-0.5,0.2-0.9,0.6-0.9,1.3c0,14,0.6,27.8-1.8,41.7c-0.6,3.6-0.2,7.1-0.5,10.7
						c-0.2,2.5-0.8,5.1-3.5,6c-0.5,0.2-2.8,0.4-3.5,0.5c-0.7,0.1-1.4,0.2-2.1,0.3c0,0,0-0.1-0.1-0.1c-1.1,0.4-2.2,0.6-3.3,0.2
						c-1-0.4-2-1-2.6-1.9c0,0.1,0,0.2,0,0.4c0.2,4.1,4.3,4.5,7.5,4.1c3.8-0.4,7.5-0.8,9.4-4.6c1.7-3.5,1-7.7,1.2-11.4
						c0.2-7.2,2.1-14.3,2.3-21.6C136.8,296.8,136.6,289.6,136.5,282.5z"/>
				</g>
			</g>
			<g>
				<g>
					<path d="M68.1,323.7c-0.1-2.2,1.5-2.8,3-4c1-0.8,1.7-1.8,2.3-2.9c1-2.3,1.1-4.9,1.2-7.3c0-1.9-3-1.9-3,0c0,3.5-0.3,6.5-3.3,8.6
						c-2.1,1.4-3.3,3.1-3.1,5.7C65.3,325.6,68.3,325.7,68.1,323.7L68.1,323.7z"/>
				</g>
			</g>
		</g>

		<g >
			<g>
				<path d="M156.5,283.9c0,5.9,0.1,11.8-0.3,17.6c-0.2,3.1,0.1,7.1-2.1,9.5c-0.8,0.9-1.9,1.4-2.4,2.6c-2.5,6,6.4,6.4,9.9,5.9
					c1.9-0.2,1.9-3.2,0-3c-2.4,0.3-7.9,0.7-6.1-2.8c0.4-0.7,1.5-1.2,2-2c0.7-1.1,0.8-2.1,1.1-3.5c1.4-8,0.9-16.4,1-24.4
					C159.6,282,156.6,282,156.5,283.9L156.5,283.9z"/>
			</g>
		</g>
		<g >
			<g>
				<path d="M222.1,332.2c2-2.3,3.9-4.3,4.4-7.4c0.8-5,0.9-10.1,1.6-15.2c1.3-9.5,2.8-19,3.5-28.6c0.2-1.9-2.8-1.9-3,0
					c-0.7,8.4-1.9,16.8-3.1,25.1c-0.5,3.3-0.9,6.6-1.3,9.9c-0.2,1.9-0.3,3.9-0.6,5.8c-0.5,3.7-1.4,5.4-3.7,8.2
					C218.7,331.6,220.9,333.7,222.1,332.2L222.1,332.2z"/>
			</g>
		</g>
		<g >
			<g>
				<path d="M214.4,279.3c-0.7,13.7,1.8,27.5-1.3,41.1c-0.4,1.9,2.5,2.7,2.9,0.8c3.2-13.9,0.7-27.9,1.4-41.9
					C217.4,277.3,214.4,277.3,214.4,279.3L214.4,279.3z"/>
			</g>
		</g>
		<g >
			<g>
				<path d="M35.5,246.4c0.3,0.1,0.6,0.3,0.9,0.4c0.7,0.4,1.6,0.2,2.1-0.5c0.4-0.7,0.2-1.7-0.5-2.1c-0.3-0.1-0.6-0.3-0.9-0.4
					c-0.7-0.4-1.6-0.2-2.1,0.5C34.6,245,34.8,246,35.5,246.4L35.5,246.4z"/>
			</g>
		</g>
		<g >
			<g>
				<path d="M161.5,318.9c5.3-0.7,7-7.5,7.6-12c1.1-7.5,0.8-15.4,1.1-23c0.1-1.9-2.9-1.9-3,0c-0.2,5.4-0.4,10.8-0.6,16.2
					c-0.1,3.4-0.2,15.2-5.1,15.8C159.6,316.2,159.6,319.2,161.5,318.9L161.5,318.9z"/>
			</g>
		</g>
		<g >
			<g>
				<path d="M213.4,319c-3,3.5-10.3,9.4-4.8,13.9c3.8,3,12,1.8,14.5-2.4c1-1.7-1.6-3.2-2.6-1.5c-1.4,2.5-7.4,3.5-9.7,1.8
					c-3.3-2.3,3.1-7.7,4.7-9.7C216.8,319.6,214.7,317.5,213.4,319L213.4,319z"/>
			</g>
		</g>
		<g >
			<g>
				<path d="M121.5,338.4c-0.7,0.1-2,0.1-2.6-0.4c-2.2-1.9-0.2-3.3,0.8-4.2c1.1-1,2.2-1.9,3.2-3.1c1.5-2,2.2-4.3,2.4-6.8
					c0.2-1.9-2.8-1.9-3,0c-0.3,3.7-2.5,5.7-5.1,8.1c-1.2,1.1-2.5,2.4-2.6,4.2c-0.1,3.5,3.8,5.6,6.9,5.2
					C123.4,341.1,123.5,338.1,121.5,338.4L121.5,338.4z"/>
			</g>
		</g>
	</g>
	<g id="scared" style="display: none">
		<g>
			<g>
				<g>
					<path d="M65.2,320.7c-4.4,8.9,11.9,12.9,16.4,5.6c3.9-6.3,2.4-15.6,1.6-22.4c-1.1-10.2-2-20.3-3-30.5c-0.2-1.9-3.2-1.9-3,0
						c1.1,11.3,2.3,22.6,3.4,33.8c0.5,5.1,1.2,11.3-0.9,16.2c-1.2,2.8-3.5,4.4-6.6,4c-2-0.3-6.8-2.1-5.3-5.1
						C68.6,320.5,66,319,65.2,320.7L65.2,320.7z"/>
				</g>
			</g>
			<g>
				<g>
					<path d="M67.1,274.8c2.1,12.7,3.7,25.4,4.6,38.2c0.1,1.9,3.1,1.9,3,0c-0.9-13.1-2.5-26.1-4.7-39
						C69.7,272.1,66.8,273,67.1,274.8L67.1,274.8z"/>
				</g>
			</g>

			<g>
				<g>
					<path d="M122,326.5c0.9-0.7,2.1-1,3.2-0.9c1.4-15.9-0.8-31.8-1.4-47.7c-0.3-2-3.3-2-3.3-0.1C121.2,293.9,124.1,310.4,122,326.5
						z"/>
					<path d="M136.5,282.5c-1.8-1-2.3-2.6-2.1-4.1c-0.5,0.2-0.9,0.6-0.9,1.3c0,14,0.6,27.8-1.8,41.7c-0.6,3.6-0.2,7.1-0.5,10.7
						c-0.2,2.5-0.8,5.1-3.5,6c-0.5,0.2-2.8,0.4-3.5,0.5c-0.7,0.1-1.4,0.2-2.1,0.3c0,0,0-0.1-0.1-0.1c-1.1,0.4-2.2,0.6-3.3,0.2
						c-1-0.4-2-1-2.6-1.9c0,0.1,0,0.2,0,0.4c0.2,4.1,4.3,4.5,7.5,4.1c3.8-0.4,7.5-0.8,9.4-4.6c1.7-3.5,1-7.7,1.2-11.4
						c0.2-7.2,2.1-14.3,2.3-21.6C136.8,296.8,136.6,289.6,136.5,282.5z"/>
				</g>
			</g>
			<g>
				<g>
					<path d="M68.1,323.7c-0.1-2.2,1.5-2.8,3-4c1-0.8,1.7-1.8,2.3-2.9c1-2.3,1.1-4.9,1.2-7.3c0-1.9-3-1.9-3,0c0,3.5-0.3,6.5-3.3,8.6
						c-2.1,1.4-3.3,3.1-3.1,5.7C65.3,325.6,68.3,325.7,68.1,323.7L68.1,323.7z"/>
				</g>
			</g>
		</g>
		<g>
			<g>
				<g>
					<path d="M134,116.1c0.1-0.2,0.3-0.4,0.4-0.6c0-0.3,0-0.5,0.1-0.8c0.1-0.5,0.2-1,0.4-1.5c0,0,0,0,0,0
						c-4.4,0.8-10.2-0.5-13.9-0.7c-4.6-0.2-9.2-0.3-13.8-0.3c-18.2-0.1-36.3,1.2-54.3,3.5c0,0.3-0.1,0.6-0.1,1
						c0.1,0.5,0.2,1.1,0.3,1.6c0.1,0.3,0.1,0.5,0.1,0.7c21.2-2.8,42.5-4,63.9-3.4c5.2,0.2,10.5,0.5,15.7,0.8c0.3,0,0.5,0,0.8,0
						C133.8,116.4,133.9,116.3,134,116.1z"/>
				</g>
			</g>
			<g>
				<g>
					<path d="M55.9,250.6c-0.7,0.3-1.4,0.7-2.1,1c-0.1-0.1-0.2-0.1-0.3-0.1c-0.1,0-0.1,0-0.2,0c0.8-4.3,3-9.4-1.9-11.6
						c-3.1-1.3-6.6,0.1-9.7,1.7c1-3.5,1.5-7,1.8-10.7c0.1-1-1-1.7-1.9-1.4c-2,0.5-4,1-6,1.6c0.8-4.5,1.7-8.9-1-13.1
						c-0.4-0.7-1.3-0.9-2.1-0.5c-1.9,1-3.7,1.1-5.6,0.9c2.1-2.7,4-5.6,5.7-8.6c0.5-0.9-0.1-2.4-1.3-2.3c-3.5,0.4-6.8,0.3-10.2-0.2
						c2.3-4.9,5-9.6,8.2-14c0.7-1-0.3-2.2-1.3-2.3c-4.1-0.3-7.9-1-11.8-2.1c2.7-3.8,5.4-7.5,8.2-11.3c0.5-0.7,0.1-1.7-0.5-2.1
						c-2-1.3-4.1-2.3-6.4-3.3c2.2-2.4,4.4-4.8,6.6-7.1c0.7-0.7,0.5-2.3-0.7-2.5c-3.3-0.5-6.6-1-9.9-1.5c1.6-1.9,3.3-3.7,4.9-5.6
						c0.7-0.9,0.5-2.2-0.7-2.5c-2.6-0.8-5-1.8-7.3-3c4.9-4.8,10-9.4,15.2-13.8c0.9-0.8,0.3-2.2-0.7-2.5c-2.4-0.7-4.8-1.4-7.2-2.2
						c3.9-2.7,7.8-5.5,11.7-8.2c-0.2-0.2-0.4-0.4-0.6-0.6c-0.5-0.6-0.9-1.1-1.4-1.7c-4.6,3.2-9.2,6.4-13.8,9.7
						c-1,0.7-0.9,2.3,0.4,2.7c2.5,0.7,5,1.5,7.4,2.3c-5.1,4.3-10,8.8-14.7,13.5c-0.7,0.7-0.5,1.9,0.3,2.4c2.5,1.5,5,2.6,7.7,3.6
						c-1.7,2-3.5,3.9-5.2,5.9c-0.7,0.8-0.5,2.3,0.7,2.5c3.2,0.5,6.5,1,9.8,1.5c-2.1,2.2-4.1,4.5-6.2,6.7c-0.8,0.9-0.4,2.1,0.7,2.5
						c2.3,0.8,4.4,1.8,6.5,3c-2.8,3.9-5.6,7.8-8.4,11.6c-0.6,0.8,0.1,1.9,0.9,2.2c3.9,1.3,7.9,2.1,11.9,2.6c-3,4.4-5.5,8.9-7.7,13.8
						c-0.4,0.8-0.1,2,0.9,2.2c3.4,0.7,6.6,1,10,0.8c-1.7,2.7-3.5,5.3-5.5,7.8c-0.9,1-0.3,2.4,1.1,2.6c3.1,0.3,5.7,0.6,8.5-0.4
						c1.6,3.8,0.2,8-0.4,12c-0.2,1.1,0.6,2.2,1.8,1.8c2-0.5,4-1,6.1-1.6c-0.4,3.9-1.2,7.5-2.5,11.3c-0.5,1.4,1.1,2.2,2.2,1.7
						c2.3-1,6.2-3.9,8.8-3.3c4.9,1.1,1,8.9,1.3,12c0,0.1,0,0.1,0,0.2c0,1.1,1.3,1.8,2.3,1.2c1.7-0.9,3.4-1.8,5.1-2.6
						C59.1,252.4,57.6,249.8,55.9,250.6z"/>
				</g>
			</g>
			<g>
				<g>
					<path d="M77.6,273.4c0.4,0.1,0.8,0.3,1.2,0.5c0.7,0.4,1.4,0.9,2,1.4c-0.1-0.7-0.1-1.3-0.2-1.9
						C80.4,271.4,77.4,271.4,77.6,273.4C77.6,273.4,77.6,273.4,77.6,273.4z"/>
				</g>
			</g>
			<g>
				<g>
					<path d="M175.7,139.1c1.3-2.5,3.2-6.2,1.8-8.2c-1.2-1.8-4.7-2.4-7.4-2.8c1.8-2.2,3.3-4.6,4.8-7.1c0.6-1.1-0.2-2.1-1.3-2.3
						c-2.4-0.3-4.7-0.4-6.9-0.2c-0.4,1.1-0.8,2.2-1.3,3.3c1.9-0.2,3.9-0.3,5.9-0.1c-1.4,2.3-3,4.4-4.8,6.4c-0.7,0.8-0.5,2.2,0.7,2.5
						c1.7,0.5,5.9,0.8,7,2.1c0.9,1.1,0.3,1.6-0.3,3.1c-0.6,1.4-1.1,2.9-1.7,4.3c-0.3,0.7,0.3,1.7,1,1.8c2.3,0.3,6.6,0.1,8.6,1.2
						c2.5,1.3,0.9,4.5,0,6.9c-0.7,1.8,2.2,2.6,2.9,0.8c0.9-2.2,3.1-7,1.2-9.3C184,139.2,179,139.2,175.7,139.1z"/>
				</g>
			</g>
			<g>
				<g>
					<path d="M29,209.3C29,209.5,29,209.5,29,209.3c-0.1,0.2-0.1,0.3-0.2,0.4c-0.1,0.1-0.1,0.2-0.2,0.3c0.1-0.1,0.1-0.1-0.1,0.1
						c0.8,0.6,1.6,1.2,2.4,1.8c0.2-0.4,0.5-0.9,0.7-1.3C30.8,210.1,29.9,209.8,29,209.3c-0.1,0.2-0.1,0.2-0.1,0.1
						c0-0.1,0.1-0.2,0.3-0.3c-0.6,0.5-1,1.3-0.5,2.1c0.4,0.6,1.4,1,2.1,0.5c0.5-0.4,0.9-0.9,1.1-1.6c0.4-1.6-1.9-2.7-2.7-1.2
						c-0.2,0.4-0.5,0.9-0.7,1.3c-0.4,0.7-0.2,1.5,0.4,1.9s1.5,0.5,2-0.1s0.9-1.2,1.2-2c0.3-0.7-0.3-1.7-1-1.8
						C30,208.1,29.3,208.5,29,209.3L29,209.3z"/>
				</g>
			</g>
			<g>
				<g>
					<path d="M136.7,283c0.1,0.1,0.2,0.2,0.4,0.3c0-1.2,0-2.5,0-3.7c0-1.9-3-1.9-3,0c0,0.7,0,1.4,0,2
						C134.9,282,135.8,282.5,136.7,283z"/>
					<path d="M122.5,280.3c0.7,0,1.3,0.1,1.9,0.2c0-0.9-0.1-1.8-0.1-2.7c-0.3-2-3.3-2-3.3-0.1c0,0.9,0.1,1.8,0.1,2.7
						C121.5,280.3,122,280.3,122.5,280.3z"/>
				</g>
			</g>
			<g>
				<g>
					<path d="M240.2,163.4c-5.3-4.8-11.4-7.7-17.9-9.6c-0.2,0-0.3-0.1-0.5-0.1c-0.4-0.1-0.8-0.2-1.2-0.3c-0.4,0-0.7-0.1-1.1-0.2
						c-0.4-0.1-0.9-0.2-1.3-0.3c-0.2,0-1.2-0.2-0.6-0.1c-0.7-0.1-1.4-0.3-2-0.6c-10.6-1.9-21.9-1.7-32.5-2.1c-2-0.1-2,2.9,0,3
						c18.6,0.7,40.1-0.9,55,12.4C239.5,166.8,241.7,164.7,240.2,163.4z"/>
				</g>
			</g>
			<g>
				<g>
					<path d="M222.8,153.9c-0.4,0-0.8-0.1-1.1-0.2c-0.2-0.1-0.4-0.2-0.6-0.2c-0.1,0-0.3,0-0.4,0c-0.4,0-0.8-0.1-1.2-0.2
						c-0.4-0.1-0.9-0.2-1.3-0.3c-0.1,0-0.5-0.1-0.7-0.1c0.8,0.8,1.7,1.5,2.5,2.4c1.5,0.9,3.1-0.1,3.2-1.2
						C223.1,153.9,222.9,153.9,222.8,153.9z"/>
				</g>
			</g>
			<g>
				<g>
					<path d="M215.3,283.9c0.8,0.2,1.7,0.4,2.5,0.6c-0.1-1.7-0.1-3.5-0.2-5.2c-0.1-1.9-3.1-1.9-3,0c0.1,1.5,0.1,3.1,0.2,4.6
						C214.9,283.8,215.1,283.8,215.3,283.9z"/>
				</g>
			</g>
			<g>
				<g>
					<path d="M231.4,286.2c0.1-3,0.3-6,0.7-8.9c0.2-1.9-2.8-1.9-3,0c-0.4,2.8-0.5,5.6-0.7,8.4C229.4,285.9,230.4,286,231.4,286.2z"
						/>
				</g>
			</g>
			<g>
				<g>
					<path d="M135.2,281.1c26.8,4.5,53.8,1.6,80.6-1.6c1.9-0.2,1.9-3.2,0-3c-26.5,3.2-53.3,6.2-79.8,1.7
						C134.1,277.9,133.3,280.7,135.2,281.1L135.2,281.1z"/>
				</g>
			</g>
			<g>
				<g>
					<path d="M167.8,285.1c0.7-0.8,1.7-1.3,2.9-1.5c0-0.3-0.1-0.7-0.1-1c-0.2-1.9-3.2-1.9-3,0C167.7,283.4,167.7,284.2,167.8,285.1z
						"/>
					<path d="M159.3,287.3c-0.1-1.7,0-3.3,0.2-4.9c0.3-1.9-2.6-2.7-2.9-0.8c-0.3,1.9-0.3,3.7-0.2,5.6
						C157.4,287.3,158.3,287.3,159.3,287.3z"/>
				</g>
			</g>
			<g>
				<g>
					<path d="M121.6,276.9c-14.3-0.2-28.6-0.5-42.4-4.7c-1-0.3-1.7,0.3-1.8,1.1c0.5,0.1,1,0.3,1.5,0.6c1.1,0.6,2.1,1.4,3,2.2
						c13,3.4,26.4,3.7,39.8,3.8C123.5,279.9,123.5,276.9,121.6,276.9z"/>
				</g>
			</g>
			<g>
				<g>
					<path d="M65.4,276.5c0.6-1,1.2-2.1,1.8-3.1c0.3-0.5,0.7-1,1.1-1.3c-0.3,0-0.7,0.1-1,0.4c-1.9,1.5-3.8,2.6-5.9,3.5
						c0.5-4,1.2-8,2.3-11.9c0.3-1.1-0.7-2.2-1.8-1.8c-2.4,0.7-4.7,1.3-7.1,2c0.9-2.5,1.8-5,2.6-7.6c0.6-1.8,1.6-3.5,0.9-5.3
						c-0.7-1.7-3.6-0.9-2.9,0.9c0.6,1.7-1.3,4.9-1.8,6.5c-0.9,2.4-1.7,4.9-2.6,7.3c-0.4,1.1,0.8,2.1,1.8,1.8c2.5-0.7,4.9-1.4,7.4-2
						c-1,4.1-1.7,8.2-2.1,12.3c-0.1,1,1,1.7,1.9,1.4c1.6-0.5,3.1-1.1,4.6-1.9C64.8,277.2,65.1,276.8,65.4,276.5z"/>
				</g>
			</g>
			<g>
				<g>
					<path d="M257.3,206.2c-0.3-0.3-0.5-0.6-0.8-1c-1-0.5-2.6,0.3-2.1,1.7c1.7,5.7,3.4,11.6,5,17.4c-2-1-3.8-2.1-5.6-3.3
						c-1.2-0.8-2.4,0.5-2.2,1.7c1.6,8.1,2.8,16.3,3.7,24.5c-2.1-1.2-4.3-2.5-6.4-3.7c-1.2-0.7-2.4,0.4-2.2,1.7
						c1,5.3,1.4,10.5,1.2,15.9c-4.2-1-8.4-2-12.5-3c-1.1-0.3-2.1,0.7-1.8,1.8c1.4,5.5,4.4,12.9,4.2,18.9c-1.8-0.8-3.7-1.7-5.5-2.5
						c-1.7-0.9-3.3,1.7-1.5,2.5c2.5,1.1,5,2.3,7.5,3.4c0.8,0.4,2,0.1,2.2-0.9c1.2-6.4-1.5-13.6-3.4-19.9c4,0.9,8,1.9,11.9,2.8
						c1,0.2,1.8-0.5,1.9-1.4c0.2-5.1,0-10.1-0.7-15.2c2.1,1.2,4.2,2.4,6.2,3.6c0.9,0.5,2.4-0.1,2.3-1.3c-0.8-8.2-1.9-16.5-3.4-24.6
						c1.9,1.2,3.9,2.2,6,2.9c1.1,0.4,2.1-0.8,1.8-1.8C261.2,219.6,259.3,212.9,257.3,206.2z"/>
				</g>
			</g>
		</g>
		<g id="cuddly_2_" style="display: none">
			<g >
				<g >
					<path d="M182.3,155.1c1.9,0,1.9-3,0-3S180.3,155.1,182.3,155.1L182.3,155.1z"/>
				</g>
			</g>
			<g >
				<g >
					<path d="M166.6,323.1c4.2-4,8.4-8,12.6-12c1.4-1.3-0.7-3.5-2.1-2.1c-4.2,4-8.4,8-12.6,12C163.1,322.4,165.2,324.5,166.6,323.1
						L166.6,323.1z"/>
				</g>
			</g>
			<g >
				<g >
					<path d="M207,297.5c-8.7,9-17.7,17.9-27.5,25.8c-4.7,3.8-9.5,7.3-14.5,10.7c-2.6,1.8-4.7,4.1-7.8,3.1c-2.1-0.6-3.2-2.2-4.3-4
						c-1-1.7-4.9-9.7,1.9-8.7c1.9,0.3,2.7-2.6,0.8-2.9c-14.3-2-5.3,24.5,6.1,18.2c8.1-4.4,15.6-10.8,22.7-16.7
						c8.7-7.3,16.7-15.2,24.6-23.4C210.5,298.2,208.3,296.1,207,297.5L207,297.5z"/>
				</g>
			</g>
			<g >
				<g >
					<path d="M181.5,156.1c25.7,32.7,47,74.4,37.6,117.1c-0.4,1.9,2.5,2.7,2.9,0.8c9.6-43.8-12-86.4-38.4-120
						C182.4,152.5,180.3,154.6,181.5,156.1L181.5,156.1z"/>
				</g>
			</g>
			<g >
				<g >
					<path d="M84.3,301.8c12.7-2,25.4-1.8,38,0.7c1.9,0.4,2.7-2.5,0.8-2.9c-13.1-2.6-26.4-2.8-39.6-0.7
						C81.6,299.2,82.4,302.1,84.3,301.8L84.3,301.8z"/>
				</g>
			</g>
			<g >
				<g >
					<path d="M136.2,306.1c6.5,1.4,13.1,2.3,19.4,4.8c1.8,0.7,2.6-2.2,0.8-2.9c-6.2-2.4-12.9-3.3-19.4-4.8
						C135.1,302.8,134.3,305.7,136.2,306.1L136.2,306.1z"/>
				</g>
			</g>
			<g >
				<g >
					<path d="M211.5,315.3c-2.8,0.3-4.3-2.8-7.2-2.3c-3.4,0.5-3.8,3.7-6.1,5.5c-4.4,3.5-8.3-5.6-12.7,0.3c-1.2,1.5,1.4,3,2.6,1.5
						c1.4-1.9,5.1,1.7,6.7,2.2c1.6,0.4,3,0.2,4.4-0.7c2.4-1.6,3.5-6.3,6.9-5.5c2.2,0.5,2.9,2.4,5.5,2.1
						C213.4,318,213.5,315,211.5,315.3L211.5,315.3z"/>
				</g>
			</g>
			<g >
				<g >
					<path d="M263.5,247.5c-1.5,0.1-2.9,0-4.4-0.4c-1-0.2-1.8,0.4-1.9,1.4c-0.7,7.4-1.1,14.9-1.2,22.4c0.6-0.5,1.3-1,1.9-1.4
						c-2.7-0.6-5.3-1.1-8-1.7c-1-0.2-1.9,0.4-1.9,1.4c0,3.3-0.2,6.7-0.7,10c-0.5,3-1.5,10.6-5.7,6.9c-0.8-0.7-2.3-0.5-2.5,0.7
						c-0.4,2.4-0.8,4.8-1.3,7.3c-0.3,1.9,2.6,2.7,2.9,0.8c0.4-2.4,0.8-4.8,1.3-7.3c-0.8,0.2-1.7,0.4-2.5,0.7
						c10.4,9,11.5-13.4,11.5-19c-0.6,0.5-1.3,1-1.9,1.4c2.7,0.6,5.3,1.1,8,1.7c1,0.2,1.9-0.4,1.9-1.4c0.1-7.5,0.5-14.9,1.2-22.4
						c-0.6,0.5-1.3,1-1.9,1.4c1.8,0.4,3.4,0.6,5.2,0.6C265.4,250.4,265.4,247.4,263.5,247.5L263.5,247.5z"/>
				</g>
			</g>
			<g >
				<g >
					<path d="M214.7,206.9c3.2-3.6,6.1-7.3,8.6-11.5c-0.9-0.3-1.9-0.5-2.8-0.8c0.3,3.7,0.7,8.8,4.9,10.2c5.2,1.6,10.4-3.6,13.3-7
						c-0.8-0.5-1.7-1-2.5-1.5c-0.7,3.4-1.3,6.8-2,10.2c-0.2,0.9,0.4,2,1.4,1.9c4.8-0.3,9.5-0.2,14.2,0.4c-0.4-0.8-0.9-1.5-1.3-2.3
						c-1.3,2.4-2.5,4.8-3.8,7.2c-0.9,1.7,1.7,3.2,2.6,1.5c1.3-2.4,2.5-4.8,3.8-7.2c0.6-1.1-0.2-2.1-1.3-2.3
						c-4.7-0.6-9.4-0.7-14.2-0.4c0.5,0.6,1,1.3,1.4,1.9c0.7-3.4,1.3-6.8,2-10.2c0.3-1.3-1.4-2.7-2.5-1.5c-1.9,2.2-4.7,5.5-7.7,6.1
						c-4.8,1-5.1-3.7-5.5-7.1c-0.1-1.4-2-2.1-2.8-0.8c-2.4,3.9-5,7.5-8.1,10.8C211.3,206.2,213.4,208.3,214.7,206.9L214.7,206.9z"/>
				</g>
			</g>
			<g >
				<g >
					<path d="M31.8,119.6c4.4-12.4,11-23.6,19.8-33.4c-0.9-0.4-1.7-0.7-2.6-1.1c0.2,11,0.1,22-0.1,33c0,1.1,1,1.6,1.9,1.4
						c22-3.1,44.2-4.3,66.4-3.7c5.2,0.2,10.5,0.5,15.7,0.8c3.2,0.2,5.7,0.4,7.9-2.1c3.1-3.5,5.4-8,8-11.8c3.1-4.6,6.2-9.2,9.3-13.9
						c-0.9-0.3-1.9-0.5-2.8-0.8c-1.1,10.6-0.7,21.1,1.1,31.5c0.3,1.9,3.2,1.1,2.9-0.8c-1.7-10.2-2.1-20.4-1-30.7
						c0.2-1.6-2-1.9-2.8-0.8c-2.9,4.3-5.9,8.7-8.8,13c-2.2,3.3-4.7,8.8-7.7,11.4c-4.1,3.6-12.9,1.3-18,1.1
						c-4.6-0.2-9.2-0.3-13.8-0.3c-19.2-0.1-38.3,1.3-57.3,3.9c0.6,0.5,1.3,1,1.9,1.4c0.2-11,0.3-22,0.1-33c0-1.2-1.7-2.1-2.6-1.1
						c-9.1,10.2-16,21.9-20.5,34.8C28.3,120.7,31.2,121.4,31.8,119.6L31.8,119.6z"/>
				</g>
			</g>
			<g >
				<g >
					<path d="M28.3,120.4c-4.9,3.5-9.9,6.9-14.8,10.4c-1,0.7-0.9,2.3,0.4,2.7c3.4,1,6.8,2,10.1,3.1c-0.2-0.8-0.4-1.7-0.7-2.5
						c-5.8,4.8-11.4,9.9-16.7,15.2c-0.7,0.7-0.5,1.9,0.3,2.4c3.2,1.9,6.3,3.2,9.9,4.3c-0.2-0.8-0.4-1.7-0.7-2.5
						c-2.2,2.6-4.5,5.1-6.7,7.7c-0.7,0.8-0.5,2.3,0.7,2.5c4.1,0.6,8.3,1.3,12.4,1.9c-0.2-0.8-0.4-1.7-0.7-2.5
						c-2.7,2.9-5.4,5.9-8.1,8.8c-0.8,0.9-0.4,2.1,0.7,2.5c2.8,1,5.4,2.2,7.9,3.8c-0.2-0.7-0.4-1.4-0.5-2.1
						c-3.1,4.3-6.2,8.6-9.3,12.9c-0.6,0.8,0.1,1.9,0.9,2.2c4.8,1.6,9.6,2.5,14.6,2.8c-0.4-0.8-0.9-1.5-1.3-2.3
						c-3.6,5-6.6,10.2-9.1,15.9c-0.4,0.8-0.1,2,0.9,2.2c4.3,0.9,8.5,1.1,12.8,0.6c-0.4-0.8-0.9-1.5-1.3-2.3c-2.1,3.6-4.4,7-7,10.3
						c-0.9,1-0.3,2.4,1.1,2.6c3.7,0.4,6.6,0.7,10-1c-0.7-0.2-1.4-0.4-2.1-0.5c2.5,4.1,0.8,8.7,0.2,13.1c-0.2,1.1,0.6,2.2,1.8,1.8
						c2.7-0.7,5.4-1.4,8.2-2.1c-0.6-0.5-1.3-1-1.9-1.4c-0.3,4.6-1.2,8.8-2.7,13.2c-0.5,1.4,1.1,2.2,2.2,1.7c2.3-1,6.2-3.9,8.8-3.3
						c4.9,1.1,1,8.9,1.3,12c0.1,1.1,1.2,1.9,2.3,1.3c1-0.6,2.5-1.4,2.3-2.8c-0.1-0.6-0.4-1.3-1.1-1.4c-1.9-0.3-2.9,0.9-3.4,2.6
						c-0.4,1.3,1.1,2.3,2.2,1.7c1.7-0.9,3.4-1.8,5.1-2.6c1.7-0.8,0.2-3.4-1.5-2.6c-1.7,0.8-3.4,1.7-5.1,2.6c0.7,0.6,1.5,1.1,2.2,1.7
						c-0.1-0.2-0.2-0.3-0.3-0.5c-0.4-0.5-0.7-1-1.1-1.4c-0.3,0.1-0.5,0.2-0.8,0.2c0.8,0.4,1.5,0.9,2.3,1.3
						c-0.5-4.5,4.5-11.9-1.7-14.6c-4.2-1.8-9.2,1.6-12.9,3.3c0.7,0.6,1.5,1.1,2.2,1.7c1.6-4.6,2.5-9.2,2.8-14c0.1-1-1-1.7-1.9-1.4
						c-2.7,0.7-5.4,1.4-8.2,2.1c0.6,0.6,1.2,1.2,1.8,1.8c0.7-5.3,2.5-10.5-0.6-15.4c-0.4-0.7-1.3-0.9-2.1-0.5
						c-2.9,1.5-5.5,0.9-8.5,0.6c0.4,0.9,0.7,1.7,1.1,2.6c2.8-3.4,5.3-7,7.5-10.9c0.5-0.9-0.1-2.4-1.3-2.3c-4.1,0.5-8,0.3-12-0.5
						c0.3,0.7,0.6,1.5,0.9,2.2c2.5-5.6,5.5-10.9,9.1-15.9c0.7-1-0.3-2.2-1.3-2.3c-4.8-0.3-9.2-1.2-13.8-2.7c0.3,0.7,0.6,1.5,0.9,2.2
						c3.1-4.3,6.2-8.6,9.3-12.9c0.5-0.7,0.1-1.7-0.5-2.1c-2.7-1.7-5.5-3-8.6-4.1c0.2,0.8,0.4,1.7,0.7,2.5c2.7-2.9,5.4-5.9,8.1-8.8
						c0.7-0.7,0.5-2.3-0.7-2.5c-4.1-0.6-8.3-1.3-12.4-1.9c0.2,0.8,0.4,1.7,0.7,2.5c2.2-2.6,4.5-5.1,6.7-7.7c0.7-0.9,0.5-2.2-0.7-2.5
						c-3.2-1-6.2-2.3-9.1-4c0.1,0.8,0.2,1.6,0.3,2.4c5.3-5.3,10.9-10.4,16.7-15.2c0.9-0.8,0.3-2.2-0.7-2.5c-3.4-1-6.8-2-10.1-3.1
						c0.1,0.9,0.2,1.8,0.4,2.7c4.9-3.5,9.9-6.9,14.8-10.4C31.4,121.9,29.9,119.3,28.3,120.4L28.3,120.4z"/>
				</g>
			</g>
			<g>
				<g>
					<path d="M65.6,320.7c-4.4,8.9,11.9,12.9,16.4,5.6c3.9-6.3,2.4-15.6,1.6-22.4c-1.1-10.2-2-20.3-3-30.5c-0.2-1.9-3.2-1.9-3,0
						c1.1,11.3,2.3,22.6,3.4,33.8c0.5,5.1,1.2,11.3-0.9,16.2c-1.2,2.8-3.5,4.4-6.6,4c-2-0.3-6.8-2.1-5.3-5.1
						C69,320.5,66.4,319,65.6,320.7L65.6,320.7z"/>
				</g>
			</g>
			<g>
				<g>
					<path d="M67.5,274.8c2.1,12.7,3.7,25.4,4.6,38.2c0.1,1.9,3.1,1.9,3,0c-0.9-13.1-2.5-26.1-4.7-39
						C70.1,272.1,67.2,273,67.5,274.8L67.5,274.8z"/>
				</g>
			</g>
			<g >
				<g >
					<path d="M158.9,123c4.9-1.5,9.7-1.8,14.8-1.2c-0.4-0.8-0.9-1.5-1.3-2.3c-1.7,3.1-3.7,5.9-6,8.5c-0.7,0.8-0.5,2.2,0.7,2.5
						c1.7,0.5,5.9,0.8,7,2.1c0.9,1.1,0.3,1.6-0.3,3.1c-0.6,1.4-1.1,2.9-1.7,4.3c-0.3,0.7,0.3,1.7,1,1.8c2.3,0.3,6.6,0.1,8.6,1.2
						c2.5,1.3,0.9,4.5,0,6.9c-0.7,1.8,2.2,2.6,2.9,0.8c0.9-2.2,3.1-7,1.2-9.3c-2.2-2.6-9-2-12-2.4c0.3,0.6,0.7,1.2,1,1.8
						c0.9-2.3,4.3-7.3,2.6-9.9c-1.6-2.4-7.3-2.6-9.8-3.3c0.2,0.8,0.4,1.7,0.7,2.5c2.5-2.8,4.6-5.8,6.5-9.1c0.6-1.1-0.2-2.1-1.3-2.3
						c-5.4-0.7-10.5-0.3-15.6,1.3C156.2,120.7,157,123.6,158.9,123L158.9,123z"/>
				</g>
			</g>
			<g >
				<g >
					<path d="M28.9,209.4C28.9,209.6,28.9,209.6,28.9,209.4c-0.1,0.2-0.1,0.3-0.2,0.4c-0.1,0.1-0.1,0.2-0.2,0.3
						c0.1-0.1,0.1-0.1-0.1,0.1c0.8,0.6,1.6,1.2,2.4,1.8c0.2-0.4,0.5-0.9,0.7-1.3C30.7,210.2,29.8,209.9,28.9,209.4
						c-0.1,0.2-0.1,0.2-0.1,0.1c0-0.1,0.1-0.2,0.3-0.3c-0.6,0.5-1,1.3-0.5,2.1c0.4,0.6,1.4,1,2.1,0.5c0.5-0.4,0.9-0.9,1.1-1.6
						c0.4-1.6-1.9-2.7-2.7-1.2c-0.2,0.4-0.5,0.9-0.7,1.3c-0.4,0.7-0.2,1.5,0.4,1.9s1.5,0.5,2-0.1s0.9-1.2,1.2-2
						c0.3-0.7-0.3-1.7-1-1.8C29.9,208.2,29.2,208.6,28.9,209.4L28.9,209.4z"/>
				</g>
			</g>
			<g >
				<g >
					<path d="M28.7,120.1c-0.1,0.3-0.2,0.6-0.3,0.9c1,0.1,2,0.3,2.9,0.4c0.1-0.9,0.3-1.8,0.5-2.6c0.6-1.9-2.3-2.6-2.9-0.8
						c-0.3,1.1-0.5,2.3-0.6,3.4c-0.1,0.7,0.6,1.4,1.3,1.5c0.7,0.1,1.4-0.3,1.6-1.1c0.1-0.3,0.2-0.6,0.3-0.9
						C32.1,119,29.2,118.2,28.7,120.1L28.7,120.1z"/>
				</g>
			</g>
			<g >
				<g >
					<path d="M156.8,119.1c-0.2,1.1-0.1,2,0.4,3c0.3,0.6,1.1,0.9,1.7,0.7c0.6-0.2,1.2-0.8,1.1-1.4c-0.1-0.9-0.2-1.7-0.3-2.6
						c-0.1-0.8-0.6-1.5-1.5-1.5c-0.7,0-1.6,0.7-1.5,1.5c0.1,0.9,0.2,1.7,0.3,2.6c0.9-0.3,1.9-0.5,2.8-0.8c0,0.1,0,0.1,0-0.1
						c0-0.1-0.1-0.2-0.1-0.3c0,0.3,0.1-0.5,0-0.2c0.1-0.8-0.2-1.6-1-1.8C157.9,117.9,156.9,118.3,156.8,119.1L156.8,119.1z"/>
				</g>
			</g>
			<g>
				<g>
					<path d="M122.4,326.5c0.9-0.7,2.1-1,3.2-0.9c1.4-15.9-0.8-31.8-1.4-47.7c-0.3-2-3.3-2-3.3-0.1
						C121.6,293.9,124.5,310.5,122.4,326.5z"/>
					<path d="M136.9,282.5c-1.8-1-2.3-2.6-2.1-4.1c-0.5,0.2-0.9,0.6-0.9,1.3c0,14,0.6,27.8-1.8,41.7c-0.6,3.6-0.2,7.1-0.5,10.7
						c-0.2,2.5-0.8,5.1-3.5,6c-0.5,0.2-2.8,0.4-3.5,0.5c-0.7,0.1-1.4,0.2-2.1,0.3c0,0,0-0.1-0.1-0.1c-1.1,0.4-2.2,0.6-3.3,0.2
						c-1-0.4-2-1-2.6-1.9c0,0.1,0,0.2,0,0.4c0.2,4.1,4.3,4.5,7.5,4.1c3.8-0.4,7.5-0.8,9.4-4.6c1.7-3.5,1-7.7,1.2-11.4
						c0.2-7.2,2.1-14.3,2.3-21.6C137.2,296.8,137,289.6,136.9,282.5z"/>
				</g>
			</g>
			<g >
				<g >
					<path d="M185.3,150.3c-0.8,0-1.5-0.1-2.3-0.1c-2-0.1-2,2.9,0,3c0.6,0,1.1,0,1.7,0.1C184.6,152.2,184.8,151.2,185.3,150.3z"/>
				</g>
			</g>
			<g >
				<g >
					<path d="M78.3,275.2c14,4.3,28.6,4.6,43.2,4.8c1.9,0,1.9-3,0-3c-14.3-0.2-28.6-0.5-42.4-4.7C77.2,271.7,76.4,274.6,78.3,275.2
						L78.3,275.2z"/>
				</g>
			</g>
			<g >
				<g >
					<path d="M55.3,252.2c0.6,1.7-1.3,4.9-1.8,6.5c-0.9,2.4-1.7,4.9-2.6,7.3c-0.4,1.1,0.8,2.1,1.8,1.8c3.3-0.9,6.5-1.8,9.8-2.7
						c-0.6-0.6-1.2-1.2-1.8-1.8c-1.3,4.9-2.2,9.8-2.7,14.8c-0.1,1,1,1.7,1.9,1.4c3.5-1.1,6.5-2.7,9.4-5c1.5-1.2-0.6-3.3-2.1-2.1
						c-2.5,2-5,3.3-8.1,4.2c0.6,0.5,1.3,1,1.9,1.4c0.5-4.8,1.3-9.4,2.6-14c0.3-1.1-0.7-2.2-1.8-1.8c-3.3,0.9-6.5,1.8-9.8,2.7
						c0.6,0.6,1.2,1.2,1.8,1.8c1.2-3.4,2.4-6.7,3.5-10.1c0.6-1.8,1.6-3.5,0.9-5.3C57.5,249.6,54.6,250.4,55.3,252.2L55.3,252.2z"/>
				</g>
			</g>
			<g >
				<g >
					<path d="M256.9,250.8c0,0.2-0.1,0.4-0.1,0.6c0.9,0.1,1.9-0.5,1.8-1.4c-0.1-1-0.2-1.9-0.3-2.9
						C257.9,248.3,257.4,249.6,256.9,250.8z"/>
				</g>
			</g>
			<g>
				<g>
					<path d="M68.5,323.7c-0.1-2.2,1.5-2.8,3-4c1-0.8,1.7-1.8,2.3-2.9c1-2.3,1.1-4.9,1.2-7.3c0-1.9-3-1.9-3,0c0,3.5-0.3,6.5-3.3,8.6
						c-2.1,1.4-3.3,3.1-3.1,5.7C65.7,325.6,68.7,325.7,68.5,323.7L68.5,323.7z"/>
				</g>
			</g>
			<g >
				<g >
					<path d="M153.7,324.1c2.2,1,3.9,2.3,6.4,2s4.6-1.7,6.6-3.1c1.5-1.1,0.1-3.7-1.5-2.6c-1.4,1-2.9,2.1-4.6,2.6
						c-2.2,0.5-3.6-0.6-5.4-1.5C153.5,320.7,151.9,323.3,153.7,324.1L153.7,324.1z"/>
				</g>
			</g>
			<g >
				<g >
					<path d="M155.6,310.7c5,2,10.2,4.6,15.5,5.6c1.9,0.4,2.7-2.5,0.8-2.9c-5.3-1-10.5-3.7-15.5-5.6
						C154.6,307.1,153.8,310,155.6,310.7L155.6,310.7z"/>
				</g>
			</g>
			<g >
				<g >
					<path d="M134.5,279.7c-0.1,1.3-0.2,2.5-0.3,3.8c1,0,2,0,3,0c-0.1-1.4-0.1-2.9-0.2-4.3c-0.1-1.9-3.1-1.9-3,0
						c0.1,1.4,0.1,2.9,0.2,4.3c0.1,1.9,2.9,1.9,3,0c0.1-1.3,0.2-2.5,0.3-3.8C137.7,277.8,134.7,277.8,134.5,279.7L134.5,279.7z"/>
				</g>
			</g>
			<g >
				<g >
					<path d="M135.7,280.9c1.9,1.1,3.9,2,5.9,2.9c0.8,0.3,1.6,0.2,2.1-0.5c0.4-0.6,0.2-1.7-0.5-2.1c-2-0.9-4-1.8-5.9-2.9
						C135.6,277.4,134.1,280,135.7,280.9L135.7,280.9z"/>
				</g>
			</g>
			<g >
				<g >
					<path d="M213.5,317.4c1.4-3.3,3-6.4,5-9.5c-0.8,0.1-1.6,0.2-2.4,0.3c2.6,2.4,5.1,4.8,7.7,7.2c0.8,0.8,2.2,0.4,2.5-0.7
						c1.5-5.3,3-10.7,4.6-16c-0.9,0.1-1.8,0.2-2.7,0.4c1.7,2.4,3.5,4.6,5.5,6.7c0.6,0.7,1.9,0.6,2.4-0.3c1.8-3.8,3.4-7.6,4.9-11.6
						c0.7-1.8-2.2-2.6-2.9-0.8c-1.4,3.7-2.9,7.3-4.6,10.9c0.8-0.1,1.6-0.2,2.4-0.3c-1.8-1.9-3.5-3.9-5-6.1c-0.7-1-2.4-1-2.7,0.4
						c-1.5,5.3-3,10.7-4.6,16c0.8-0.2,1.7-0.4,2.5-0.7c-2.6-2.4-5.1-4.8-7.7-7.2c-0.7-0.7-1.8-0.5-2.4,0.3
						c-2.1,3.2-3.8,6.6-5.3,10.2C209.9,318.4,212.8,319.2,213.5,317.4L213.5,317.4z"/>
				</g>
			</g>
			<g >
				<g >
					<path d="M208.4,300.8c7.4-8,12.2-17.7,14.1-28.5c0.3-1.9-2.6-2.7-2.9-0.8c-1.8,10.3-6.2,19.5-13.3,27.2
						C205,300.1,207.1,302.2,208.4,300.8L208.4,300.8z"/>
				</g>
			</g>
			<g >
				<g >
					<path d="M245.6,216.8c7.4,2.9,14.6,6.2,21.7,9.9c-0.1-0.8-0.2-1.6-0.3-2.4c-3.8,3.6-8.2,5.7-13.4,6.5c-1.2,0.2-1.3,1.7-0.7,2.5
						c4.3,5.4,8.6,10.8,13,16.2c0.4-0.9,0.7-1.7,1.1-2.6c-1.3,0.2-2.6,0.2-4-0.1c-1.9-0.3-2.7,2.6-0.8,2.9c1.6,0.2,3.1,0.3,4.8,0.2
						c1.4-0.1,1.9-1.5,1.1-2.6c-4.3-5.4-8.6-10.8-13-16.2c-0.2,0.8-0.4,1.7-0.7,2.5c5.7-0.9,10.5-3.3,14.7-7.3
						c0.7-0.6,0.5-1.9-0.3-2.4c-7.3-3.8-14.7-7.2-22.4-10.2C244.6,213.2,243.8,216.1,245.6,216.8L245.6,216.8z"/>
				</g>
			</g>
			<g >
				<g >
					<path d="M68.5,283.9c-6.6,9.2-14.2,17.8-22.9,25.1c-2,1.6-3.3,2.8-6.1,3.1c-1.2,0.2-2.6-0.2-3.8,0c-1.1,0.2-2.2,0.4-3.1,1.1
						c-2,1.4-2.8,3.5-1.8,5.8c2.2,4.9,10.6,10.4,15.9,7.6c4.3-2.3,8-7.2,11.6-10.5c4.6-4.3,9.1-8.5,13.7-12.8
						c1.4-1.3-0.7-3.4-2.1-2.1c-6.2,5.8-12.5,11.7-18.7,17.5c-4.3,4-8.1,7.2-13.6,3.4c-2.5-1.7-5.5-4.2,0.1-6.9
						c1.2-0.6,3.4,0,4.8-0.5c5.5-1.8,10.4-8,14.3-12c5.2-5.4,10-11.1,14.4-17.2C72.2,283.8,69.6,282.3,68.5,283.9L68.5,283.9z"/>
				</g>
			</g>
		</g>
		<g >
			<g>
				<path d="M63.4,278.1c1.1-0.3,1.9-1,2.8-1.7c0.9-0.8,2-1.1,3.2-1.5c1.8-0.6,1.1-3.5-0.8-2.9c-1.1,0.3-2.3,0.7-3.3,1.3
					c-0.9,0.6-1.6,1.6-2.6,1.8C60.7,275.7,61.5,278.6,63.4,278.1L63.4,278.1z"/>
			</g>
		</g>
		<g >
			<g>
				<path d="M156.9,283.9c0,5.9,0.1,11.8-0.3,17.6c-0.2,3.1,0.1,7.1-2.1,9.5c-0.8,0.9-1.9,1.4-2.4,2.6c-2.5,6,6.4,6.4,9.9,5.9
					c1.9-0.2,1.9-3.2,0-3c-2.4,0.3-7.9,0.7-6.1-2.8c0.4-0.7,1.5-1.2,2-2c0.7-1.1,0.8-2.1,1.1-3.5c1.4-8,0.9-16.4,1-24.4
					C159.9,282,156.9,282,156.9,283.9L156.9,283.9z"/>
			</g>
		</g>
		<g >
			<g>
				<path d="M222.5,332.2c2-2.3,3.9-4.3,4.4-7.4c0.8-5,0.9-10.1,1.6-15.2c1.3-9.5,2.8-19,3.5-28.6c0.2-1.9-2.8-1.9-3,0
					c-0.7,8.4-1.9,16.8-3.1,25.1c-0.5,3.3-0.9,6.6-1.3,9.9c-0.2,1.9-0.3,3.9-0.6,5.8c-0.5,3.7-1.4,5.4-3.7,8.2
					C219.1,331.6,221.2,333.7,222.5,332.2L222.5,332.2z"/>
			</g>
		</g>
		<g >
			<g>
				<path d="M214.7,279.3c-0.7,13.7,1.8,27.5-1.3,41.1c-0.4,1.9,2.5,2.7,2.9,0.8c3.2-13.9,0.7-27.9,1.4-41.9
					C217.8,277.4,214.8,277.4,214.7,279.3L214.7,279.3z"/>
			</g>
		</g>
		<g >
			<g>
				<path d="M35.9,246.4c0.3,0.1,0.6,0.3,0.9,0.4c0.7,0.4,1.6,0.2,2.1-0.5c0.4-0.7,0.2-1.7-0.5-2.1c-0.3-0.1-0.6-0.3-0.9-0.4
					c-0.7-0.4-1.6-0.2-2.1,0.5C35,245,35.2,246,35.9,246.4L35.9,246.4z"/>
			</g>
		</g>
		<g >
			<g>
				<path d="M161.8,319c5.3-0.7,7-7.5,7.6-12c1.1-7.5,0.8-15.4,1.1-23c0.1-1.9-2.9-1.9-3,0c-0.2,5.4-0.4,10.8-0.6,16.2
					c-0.1,3.4-0.2,15.2-5.1,15.8C160,316.2,159.9,319.2,161.8,319L161.8,319z"/>
			</g>
		</g>
		<g >
			<g>
				<path d="M213.8,319c-3,3.5-10.3,9.4-4.8,13.9c3.8,3,12,1.8,14.5-2.4c1-1.7-1.6-3.2-2.6-1.5c-1.4,2.5-7.4,3.5-9.7,1.8
					c-3.3-2.3,3.1-7.7,4.7-9.7C217.2,319.7,215.1,317.5,213.8,319L213.8,319z"/>
			</g>
		</g>
		<g >
			<g>
				<path d="M121.9,338.4c-0.7,0.1-2,0.1-2.6-0.4c-2.2-1.9-0.2-3.3,0.8-4.2c1.1-1,2.2-1.9,3.2-3.1c1.5-2,2.2-4.3,2.4-6.8
					c0.2-1.9-2.8-1.9-3,0c-0.3,3.7-2.5,5.7-5.1,8.1c-1.2,1.1-2.5,2.4-2.6,4.2c-0.1,3.5,3.8,5.6,6.9,5.2
					C123.8,341.2,123.8,338.2,121.9,338.4L121.9,338.4z"/>
			</g>
		</g>
		<g >
			<g>
				<path d="M239.7,166.2c9.6-4.4,19.7-6.7,30.3-7c-0.4-0.8-0.9-1.5-1.3-2.3c-2.7,3.9-5.8,7.3-9.4,10.4c-1,0.8-0.2,2.6,1.1,2.6
					c8.6-0.5,17.1,0.1,25.6,1.8c-0.2-0.8-0.4-1.7-0.7-2.5c-2.5,2.6-5.1,5.2-7.6,7.9c-0.7,0.7-0.5,1.9,0.3,2.4
					c6,3.5,11.2,7.9,15.8,13.1c0.2-0.8,0.4-1.7,0.7-2.5c-3.1,0.8-9,1-7.9,5.5c0.7,2.9,3,6.1,4.4,8.6c1.9,3.8,3.9,7.6,5.8,11.3
					c0.1-0.6,0.2-1.2,0.2-1.8c-2.9,3.1-9.6-0.3-9.1,6.3c0.2,2.8,2.1,5.8,3.2,8.3c1.7,4,3.5,8,5.2,12c0.6-0.7,1.1-1.5,1.7-2.2
					c-2.7-0.5-5.4-1.1-8.1-1.6c-0.8-0.2-2,0.4-1.9,1.4c1.6,12.4,1.6,24.9,0,37.3c0.8-0.4,1.5-0.9,2.3-1.3c-4.2-2.4-8.4-4.8-12.5-7.2
					c-0.8-0.4-2.1-0.1-2.2,0.9c-1.8,12.5-4.9,24.7-9.2,36.6c1,0,1.9,0,2.9,0c-2.3-5.9-5.1-11.4-8.6-16.7c-0.6-0.9-2-1-2.6,0
					c-4.5,8-9.8,15.4-16,22.1c0.8,0.1,1.6,0.2,2.4,0.3c-3-4.9-4.4-10-4.1-15.8c0.1-1.3-1.7-2-2.6-1.1c-2.2,2.3-4.3,4.5-6.5,6.8
					c0.7,0,1.4,0,2.1,0c-1.4-1.4-2.4-2.8-3.2-4.6c-0.8-1.7-3.4-0.2-2.6,1.5c1,2.1,2.1,3.6,3.7,5.2c0.6,0.6,1.6,0.6,2.1,0
					c2.2-2.3,4.3-4.5,6.5-6.8c-0.9-0.4-1.7-0.7-2.6-1.1c-0.3,6.2,1.3,12,4.6,17.3c0.5,0.8,1.7,1,2.4,0.3
					c6.4-6.9,11.9-14.5,16.5-22.7c-0.9,0-1.7,0-2.6,0c3.3,5.1,6.1,10.3,8.3,16c0.5,1.4,2.4,1.4,2.9,0c4.3-11.9,7.4-24.1,9.2-36.6
					c-0.7,0.3-1.5,0.6-2.2,0.9c4.2,2.4,8.4,4.8,12.5,7.2c1.1,0.6,2.1-0.2,2.3-1.3c1.6-12.4,1.6-24.9,0-37.3c-0.6,0.5-1.3,1-1.9,1.4
					c2.7,0.5,5.4,1.1,8.1,1.6c1.4,0.3,2.2-1,1.7-2.2c-1.1-2.6-2.2-5.2-3.4-7.7c-1.1-2.5-3.6-6.3-3.9-9c-0.9-1.1-0.7-2,0.6-2.8
					c0.2-1.1,0.8-1.6,1.7-1.5c0.6-0.2,1.4-0.1,2-0.2c1.3-0.3,2.2-0.8,3.1-1.7c0.5-0.5,0.6-1.2,0.2-1.8c-2.1-4.1-4.2-8.1-6.3-12.2
					c-0.9-1.7-2-3.5-2.7-5.2c-1.4-1.8-1-2.7,1.2-2.6c1.2-0.3,2.5-0.7,3.7-1c1.1-0.3,1.4-1.7,0.7-2.5c-4.8-5.4-10.2-9.9-16.5-13.6
					c0.1,0.8,0.2,1.6,0.3,2.4c2.5-2.6,5.1-5.2,7.6-7.9c0.7-0.8,0.5-2.3-0.7-2.5c-8.7-1.7-17.5-2.4-26.4-1.9c0.4,0.9,0.7,1.7,1.1,2.6
					c3.7-3.3,7-6.9,9.8-11c0.7-0.9-0.2-2.3-1.3-2.3c-11.1,0.4-21.7,2.9-31.8,7.4C236.4,164.4,238,167,239.7,166.2L239.7,166.2z"/>
			</g>
		</g>
		<g >
			<g>
				<path d="M27.7,122.3c-0.3,6.5,2.2,12.5,4.2,18.5c2.4,7,4.8,14,7.2,21c0.5,1.6,2.9,1.3,2.9-0.4c0.4-8.9,2.4-17.5,4.7-26.1
					c0.9-3.6,1.9-7.2,2.9-10.8c0.7-2.6,2.4-6.2,1.7-9c-0.9-3.7-5.5-4.4-8.7-4.1c-6.5,0.8-11.2,5.7-15.3,10.3
					c-1.3,1.4,0.8,3.6,2.1,2.1c3.5-3.9,8.1-9.5,13.8-9.4c2.3,0,4.6,2.7,4.7,4.8c0,1-0.7,2.5-0.9,3.5c-0.7,2.6-1.4,5.3-2.1,7.9
					c-2.7,10.1-5.2,20.1-5.8,30.6c1-0.1,2-0.3,2.9-0.4c-2.2-6.4-4.4-12.8-6.6-19.2c-2.2-6.3-5-12.8-4.8-19.6
					C30.7,120.4,27.7,120.4,27.7,122.3L27.7,122.3z"/>
			</g>
		</g>
		<g >
			<g>
				<path d="M49.7,120.5c1.2-0.4,2.4-0.5,3.7-0.3c1.7,0.2,2-2.6,0.4-2.9c-1-0.2-2.1-0.5-3.1-0.7c0,1,0,1.9,0,2.9
					c1.4-0.3,2.8-0.4,4.2-0.2c1.7,0.2,2-2.6,0.4-2.9c-0.8-0.2-1.6-0.4-2.4-0.5c-1.9-0.4-2.7,2.5-0.8,2.9c0.8,0.2,1.6,0.4,2.4,0.5
					c0.1-1,0.3-2,0.4-2.9c-1.7-0.2-3.4-0.1-5,0.3c-1.4,0.3-1.4,2.6,0,2.9c1,0.2,2.1,0.5,3.1,0.7c0.1-1,0.3-2,0.4-2.9
					c-1.5-0.2-3,0-4.5,0.4C47.1,118.2,47.9,121.1,49.7,120.5L49.7,120.5z"/>
			</g>
		</g>
		<g >
			<g>
				<path d="M133.3,114.5c4.3,14.9,16,26.2,20.3,41.1c0.4,1.4,2.5,1.4,2.9,0c2.4-7.7,4.5-15.4,6.2-23.2c1.1-5,4.1-12.6,2.1-17.6
					c-1.5-3.8-5.5-4.8-9.2-5.1c-7.2-0.7-14.5,0.5-21.3,2.8c-1.8,0.6-1,3.5,0.8,2.9c5.2-1.7,10.6-2.7,16.1-2.8c2.2,0,5.7-0.3,7.7,0.7
					c4.5,2.3,3.4,6.1,2.6,10.2c-2,10.6-4.7,21.1-7.9,31.4c1,0,1.9,0,2.9,0c-4.3-14.9-15.9-26.2-20.3-41.1
					C135.7,111.9,132.8,112.7,133.3,114.5L133.3,114.5z"/>
			</g>
		</g>
		<g >
			<g>
				<path d="M164.3,121.7c0.5,0.1,1,0.3,1.5,0.4c0.1-1,0.3-2,0.4-2.9c-0.5,0-1.1,0.1-1.6,0.1c-0.8,0.1-1.5,0.7-1.5,1.5
					c0,0.8,0.7,1.5,1.5,1.5c0.5,0,1.1,0,1.6,0c0.8,0,1.5-0.7,1.5-1.5c0-0.8-0.7-1.5-1.5-1.5c-0.5,0-1.1,0-1.6,0c0,1,0,2,0,3
					c0.5,0,1.1-0.1,1.6-0.1c0.8-0.1,1.4-0.5,1.5-1.3c0.1-0.7-0.3-1.4-1.1-1.6c-0.5-0.1-1-0.3-1.5-0.4c-0.8-0.2-1.7,0.3-1.8,1
					C163,120.6,163.5,121.4,164.3,121.7L164.3,121.7z"/>
			</g>
		</g>
	</g>
	<g id="sitting" style="display: none">
		<g>
			<g>
				<g>
					<path d="M181.9,155.1c1.9,0,1.9-3,0-3S179.9,155.1,181.9,155.1L181.9,155.1z"/>
				</g>
			</g>
			<g>
				<g>
					<path d="M166.2,323.1c4.2-4,8.4-8,12.6-12c1.4-1.3-0.7-3.5-2.1-2.1c-4.2,4-8.4,8-12.6,12C162.7,322.4,164.8,324.5,166.2,323.1
						L166.2,323.1z"/>
				</g>
			</g>
			<g>
				<g>
					<path d="M206.6,297.5c-8.7,9-17.7,17.9-27.5,25.8c-4.7,3.8-9.5,7.3-14.5,10.7c-2.6,1.8-4.7,4.1-7.8,3.1c-2.1-0.6-3.2-2.2-4.3-4
						c-1-1.7-4.9-9.7,1.9-8.7c1.9,0.3,2.7-2.6,0.8-2.9c-14.3-2-5.3,24.5,6.1,18.2c8.1-4.4,15.6-10.8,22.7-16.7
						c8.7-7.3,16.7-15.2,24.6-23.4C210.1,298.2,207.9,296.1,206.6,297.5L206.6,297.5z"/>
				</g>
			</g>
			<g>
				<g>
					<path d="M181.1,156.1c25.7,32.7,47,74.4,37.6,117.1c-0.4,1.9,2.5,2.7,2.9,0.8c9.6-43.8-12-86.4-38.4-120
						C182,152.5,179.9,154.6,181.1,156.1L181.1,156.1z"/>
				</g>
			</g>
			<g>
				<g>
					<path d="M83.9,301.8c12.7-2,25.4-1.8,38,0.7c1.9,0.4,2.7-2.5,0.8-2.9c-13.1-2.6-26.4-2.8-39.6-0.7
						C81.2,299.2,82,302.1,83.9,301.8L83.9,301.8z"/>
				</g>
			</g>
			<g>
				<g>
					<path d="M135.8,306.1c6.5,1.4,13.1,2.3,19.4,4.8c1.8,0.7,2.6-2.2,0.8-2.9c-6.2-2.4-12.9-3.3-19.4-4.8
						C134.7,302.8,133.9,305.7,135.8,306.1L135.8,306.1z"/>
				</g>
			</g>
			<g>
				<g>
					<path d="M211.1,315.3c-2.8,0.3-4.3-2.8-7.2-2.3c-3.4,0.5-3.8,3.7-6.1,5.5c-4.4,3.5-8.3-5.6-12.7,0.3c-1.2,1.5,1.4,3,2.6,1.5
						c1.4-1.9,5.1,1.7,6.7,2.2c1.6,0.4,3,0.2,4.4-0.7c2.4-1.6,3.5-6.3,6.9-5.5c2.2,0.5,2.9,2.4,5.5,2.1
						C213,318,213.1,315,211.1,315.3L211.1,315.3z"/>
				</g>
			</g>
			<g>
				<g>
					<path d="M263.1,247.5c-1.5,0.1-2.9,0-4.4-0.4c-1-0.2-1.8,0.4-1.9,1.4c-0.7,7.4-1.1,14.9-1.2,22.4c0.6-0.5,1.3-1,1.9-1.4
						c-2.7-0.6-5.3-1.1-8-1.7c-1-0.2-1.9,0.4-1.9,1.4c0,3.3-0.2,6.7-0.7,10c-0.5,3-1.5,10.6-5.7,6.9c-0.8-0.7-2.3-0.5-2.5,0.7
						c-0.4,2.4-0.8,4.8-1.3,7.3c-0.3,1.9,2.6,2.7,2.9,0.8c0.4-2.4,0.8-4.8,1.3-7.3c-0.8,0.2-1.7,0.4-2.5,0.7
						c10.4,9,11.5-13.4,11.5-19c-0.6,0.5-1.3,1-1.9,1.4c2.7,0.6,5.3,1.1,8,1.7c1,0.2,1.9-0.4,1.9-1.4c0.1-7.5,0.5-14.9,1.2-22.4
						c-0.6,0.5-1.3,1-1.9,1.4c1.8,0.4,3.4,0.6,5.2,0.6C265,250.4,265,247.4,263.1,247.5L263.1,247.5z"/>
				</g>
			</g>
			<g>
				<g>
					<path d="M214.3,206.9c3.2-3.6,6.1-7.3,8.6-11.5c-0.9-0.3-1.9-0.5-2.8-0.8c0.3,3.7,0.7,8.8,4.9,10.2c5.2,1.6,10.4-3.6,13.3-7
						c-0.8-0.5-1.7-1-2.5-1.5c-0.7,3.4-1.3,6.8-2,10.2c-0.2,0.9,0.4,2,1.4,1.9c4.8-0.3,9.5-0.2,14.2,0.4c-0.4-0.8-0.9-1.5-1.3-2.3
						c-1.3,2.4-2.5,4.8-3.8,7.2c-0.9,1.7,1.7,3.2,2.6,1.5c1.3-2.4,2.5-4.8,3.8-7.2c0.6-1.1-0.2-2.1-1.3-2.3
						c-4.7-0.6-9.4-0.7-14.2-0.4c0.5,0.6,1,1.3,1.4,1.9c0.7-3.4,1.3-6.8,2-10.2c0.3-1.3-1.4-2.7-2.5-1.5c-1.9,2.2-4.7,5.5-7.7,6.1
						c-4.8,1-5.1-3.7-5.5-7.1c-0.1-1.4-2-2.1-2.8-0.8c-2.4,3.9-5,7.5-8.1,10.8C210.9,206.2,213,208.3,214.3,206.9L214.3,206.9z"/>
				</g>
			</g>
			<g>
				<g>
					<path d="M31.4,119.6c4.4-12.4,11-23.6,19.8-33.4c-0.9-0.4-1.7-0.7-2.6-1.1c0.2,11,0.1,22-0.1,33c0,1.1,1,1.6,1.9,1.4
						c22-3.1,44.2-4.3,66.4-3.7c5.2,0.2,10.5,0.5,15.7,0.8c3.2,0.2,5.7,0.4,7.9-2.1c3.1-3.5,5.4-8,8-11.8c3.1-4.6,6.2-9.2,9.3-13.9
						c-0.9-0.3-1.9-0.5-2.8-0.8c-1.1,10.6-0.7,21.1,1.1,31.5c0.3,1.9,3.2,1.1,2.9-0.8c-1.7-10.2-2.1-20.4-1-30.7
						c0.2-1.6-2-1.9-2.8-0.8c-2.9,4.3-5.9,8.7-8.8,13c-2.2,3.3-4.7,8.8-7.7,11.4c-4.1,3.6-12.9,1.3-18,1.1
						c-4.6-0.2-9.2-0.3-13.8-0.3c-19.2-0.1-38.3,1.3-57.3,3.9c0.6,0.5,1.3,1,1.9,1.4c0.2-11,0.3-22,0.1-33c0-1.2-1.7-2.1-2.6-1.1
						c-9.1,10.2-16,21.9-20.5,34.8C27.9,120.7,30.8,121.4,31.4,119.6L31.4,119.6z"/>
				</g>
			</g>
			<g>
				<g>
					<path d="M27.9,120.4c-4.9,3.5-9.9,6.9-14.8,10.4c-1,0.7-0.9,2.3,0.4,2.7c3.4,1,6.8,2,10.1,3.1c-0.2-0.8-0.4-1.7-0.7-2.5
						c-5.8,4.8-11.4,9.9-16.7,15.2c-0.7,0.7-0.5,1.9,0.3,2.4c3.2,1.9,6.3,3.2,9.9,4.3c-0.2-0.8-0.4-1.7-0.7-2.5
						c-2.2,2.6-4.5,5.1-6.7,7.7c-0.7,0.8-0.5,2.3,0.7,2.5c4.1,0.6,8.3,1.3,12.4,1.9c-0.2-0.8-0.4-1.7-0.7-2.5
						c-2.7,2.9-5.4,5.9-8.1,8.8c-0.8,0.9-0.4,2.1,0.7,2.5c2.8,1,5.4,2.2,7.9,3.8c-0.2-0.7-0.4-1.4-0.5-2.1
						c-3.1,4.3-6.2,8.6-9.3,12.9c-0.6,0.8,0.1,1.9,0.9,2.2c4.8,1.6,9.6,2.5,14.6,2.8c-0.4-0.8-0.9-1.5-1.3-2.3
						c-3.6,5-6.6,10.2-9.1,15.9c-0.4,0.8-0.1,2,0.9,2.2c4.3,0.9,8.5,1.1,12.8,0.6c-0.4-0.8-0.9-1.5-1.3-2.3c-2.1,3.6-4.4,7-7,10.3
						c-0.9,1-0.3,2.4,1.1,2.6c3.7,0.4,6.6,0.7,10-1c-0.7-0.2-1.4-0.4-2.1-0.5c2.5,4.1,0.8,8.7,0.2,13.1c-0.2,1.1,0.6,2.2,1.8,1.8
						c2.7-0.7,5.4-1.4,8.2-2.1c-0.6-0.5-1.3-1-1.9-1.4c-0.3,4.6-1.2,8.8-2.7,13.2c-0.5,1.4,1.1,2.2,2.2,1.7c2.3-1,6.2-3.9,8.8-3.3
						c4.9,1.1,1,8.9,1.3,12c0.1,1.1,1.2,1.9,2.3,1.3c1-0.6,2.5-1.4,2.3-2.8c-0.1-0.6-0.4-1.3-1.1-1.4c-1.9-0.3-2.9,0.9-3.4,2.6
						c-0.4,1.3,1.1,2.3,2.2,1.7c1.7-0.9,3.4-1.8,5.1-2.6c1.7-0.8,0.2-3.4-1.5-2.6c-1.7,0.8-3.4,1.7-5.1,2.6c0.7,0.6,1.5,1.1,2.2,1.7
						c-0.1-0.2-0.2-0.3-0.3-0.5c-0.4-0.5-0.7-1-1.1-1.4c-0.3,0.1-0.5,0.2-0.8,0.2c0.8,0.4,1.5,0.9,2.3,1.3
						c-0.5-4.5,4.5-11.9-1.7-14.6c-4.2-1.8-9.2,1.6-12.9,3.3c0.7,0.6,1.5,1.1,2.2,1.7c1.6-4.6,2.5-9.2,2.8-14c0.1-1-1-1.7-1.9-1.4
						c-2.7,0.7-5.4,1.4-8.2,2.1c0.6,0.6,1.2,1.2,1.8,1.8c0.7-5.3,2.5-10.5-0.6-15.4c-0.4-0.7-1.3-0.9-2.1-0.5
						c-2.9,1.5-5.5,0.9-8.5,0.6c0.4,0.9,0.7,1.7,1.1,2.6c2.8-3.4,5.3-7,7.5-10.9c0.5-0.9-0.1-2.4-1.3-2.3c-4.1,0.5-8,0.3-12-0.5
						c0.3,0.7,0.6,1.5,0.9,2.2c2.5-5.6,5.5-10.9,9.1-15.9c0.7-1-0.3-2.2-1.3-2.3c-4.8-0.3-9.2-1.2-13.8-2.7c0.3,0.7,0.6,1.5,0.9,2.2
						c3.1-4.3,6.2-8.6,9.3-12.9c0.5-0.7,0.1-1.7-0.5-2.1c-2.7-1.7-5.5-3-8.6-4.1c0.2,0.8,0.4,1.7,0.7,2.5c2.7-2.9,5.4-5.9,8.1-8.8
						c0.7-0.7,0.5-2.3-0.7-2.5c-4.1-0.6-8.3-1.3-12.4-1.9c0.2,0.8,0.4,1.7,0.7,2.5c2.2-2.6,4.5-5.1,6.7-7.7c0.7-0.9,0.5-2.2-0.7-2.5
						c-3.2-1-6.2-2.3-9.1-4c0.1,0.8,0.2,1.6,0.3,2.4c5.3-5.3,10.9-10.4,16.7-15.2c0.9-0.8,0.3-2.2-0.7-2.5c-3.4-1-6.8-2-10.1-3.1
						c0.1,0.9,0.2,1.8,0.4,2.7c4.9-3.5,9.9-6.9,14.8-10.4C31,121.9,29.5,119.3,27.9,120.4L27.9,120.4z"/>
				</g>
			</g>
			<g>
				<g>
					<path d="M65.2,320.7c-4.4,8.9,11.9,12.9,16.4,5.6c3.9-6.3,2.4-15.6,1.6-22.4c-1.1-10.2-2-20.3-3-30.5c-0.2-1.9-3.2-1.9-3,0
						c1.1,11.3,2.3,22.6,3.4,33.8c0.5,5.1,1.2,11.3-0.9,16.2c-1.2,2.8-3.5,4.4-6.6,4c-2-0.3-6.8-2.1-5.3-5.1
						C68.6,320.5,66,319,65.2,320.7L65.2,320.7z"/>
				</g>
			</g>
			<g>
				<g>
					<path d="M67.1,274.8c2.1,12.7,3.7,25.4,4.6,38.2c0.1,1.9,3.1,1.9,3,0c-0.9-13.1-2.5-26.1-4.7-39
						C69.7,272.1,66.8,273,67.1,274.8L67.1,274.8z"/>
				</g>
			</g>
			<g>
				<g>
					<path d="M158.5,123c4.9-1.5,9.7-1.8,14.8-1.2c-0.4-0.8-0.9-1.5-1.3-2.3c-1.7,3.1-3.7,5.9-6,8.5c-0.7,0.8-0.5,2.2,0.7,2.5
						c1.7,0.5,5.9,0.8,7,2.1c0.9,1.1,0.3,1.6-0.3,3.1c-0.6,1.4-1.1,2.9-1.7,4.3c-0.3,0.7,0.3,1.7,1,1.8c2.3,0.3,6.6,0.1,8.6,1.2
						c2.5,1.3,0.9,4.5,0,6.9c-0.7,1.8,2.2,2.6,2.9,0.8c0.9-2.2,3.1-7,1.2-9.3c-2.2-2.6-9-2-12-2.4c0.3,0.6,0.7,1.2,1,1.8
						c0.9-2.3,4.3-7.3,2.6-9.9c-1.6-2.4-7.3-2.6-9.8-3.3c0.2,0.8,0.4,1.7,0.7,2.5c2.5-2.8,4.6-5.8,6.5-9.1c0.6-1.1-0.2-2.1-1.3-2.3
						c-5.4-0.7-10.5-0.3-15.6,1.3C155.8,120.7,156.6,123.6,158.5,123L158.5,123z"/>
				</g>
			</g>
			<g>
				<g>
					<path d="M28.5,209.4C28.5,209.6,28.5,209.6,28.5,209.4c-0.1,0.2-0.1,0.3-0.2,0.4c-0.1,0.1-0.1,0.2-0.2,0.3
						c0.1-0.1,0.1-0.1-0.1,0.1c0.8,0.6,1.6,1.2,2.4,1.8c0.2-0.4,0.5-0.9,0.7-1.3C30.3,210.2,29.4,209.9,28.5,209.4
						c-0.1,0.2-0.1,0.2-0.1,0.1c0-0.1,0.1-0.2,0.3-0.3c-0.6,0.5-1,1.3-0.5,2.1c0.4,0.6,1.4,1,2.1,0.5c0.5-0.4,0.9-0.9,1.1-1.6
						c0.4-1.6-1.9-2.7-2.7-1.2c-0.2,0.4-0.5,0.9-0.7,1.3c-0.4,0.7-0.2,1.5,0.4,1.9s1.5,0.5,2-0.1s0.9-1.2,1.2-2
						c0.3-0.7-0.3-1.7-1-1.8C29.5,208.2,28.8,208.6,28.5,209.4L28.5,209.4z"/>
				</g>
			</g>
			<g>
				<g>
					<path d="M28.3,120.1c-0.1,0.3-0.2,0.6-0.3,0.9c1,0.1,2,0.3,2.9,0.4c0.1-0.9,0.3-1.8,0.5-2.6c0.6-1.9-2.3-2.6-2.9-0.8
						c-0.3,1.1-0.5,2.3-0.6,3.4c-0.1,0.7,0.6,1.4,1.3,1.5c0.7,0.1,1.4-0.3,1.6-1.1c0.1-0.3,0.2-0.6,0.3-0.9
						C31.7,119,28.8,118.2,28.3,120.1L28.3,120.1z"/>
				</g>
			</g>
			<g>
				<g>
					<path d="M156.4,119.1c-0.2,1.1-0.1,2,0.4,3c0.3,0.6,1.1,0.9,1.7,0.7c0.6-0.2,1.2-0.8,1.1-1.4c-0.1-0.9-0.2-1.7-0.3-2.6
						c-0.1-0.8-0.6-1.5-1.5-1.5c-0.7,0-1.6,0.7-1.5,1.5c0.1,0.9,0.2,1.7,0.3,2.6c0.9-0.3,1.9-0.5,2.8-0.8c0,0.1,0,0.1,0-0.1
						c0-0.1-0.1-0.2-0.1-0.3c0,0.3,0.1-0.5,0-0.2c0.1-0.8-0.2-1.6-1-1.8C157.5,117.9,156.5,118.3,156.4,119.1L156.4,119.1z"/>
				</g>
			</g>
			<g>
				<g>
					<path d="M134.4,278.4c-0.5,0.2-0.9,0.6-0.9,1.3c0,14,0.6,27.8-1.8,41.7c-0.6,3.6-0.2,7.1-0.5,10.7c-0.2,2.5-0.8,5.1-3.5,6
						c-0.5,0.2-2.8,0.4-3.5,0.5s-1.4,0.2-2.1,0.3c-2.1-3.6-1.7-5.5,1.3-5.7c0.5-0.1,1-0.6,1-1c2.8-18.1,0.1-36.2-0.6-54.3
						c-0.3-2-3.3-2-3.3-0.1c0.7,16.2,3.6,32.9,1.4,49.1c-0.1,1.2-0.3,2.4-0.7,3.6c-0.5,0.2-1,0.4-1.4,0.6c-0.7,0.7-1.5,1.1-2.1,1.9
						c-1,1.2-1.7,2.9-1.6,4.5c0.2,4.1,4.3,4.5,7.5,4.1c3.8-0.4,7.5-0.8,9.4-4.6c1.7-3.5,1-7.7,1.2-11.4c0.2-7.2,2.1-14.3,2.3-21.6
						c0.3-7.2,0.1-14.4,0-21.5C134.7,281.5,134.2,279.9,134.4,278.4z"/>
				</g>
			</g>
			<g>
				<g>
					<path d="M184.9,150.3c-0.8,0-1.5-0.1-2.3-0.1c-2-0.1-2,2.9,0,3c0.6,0,1.1,0,1.7,0.1C184.2,152.2,184.4,151.2,184.9,150.3z"/>
				</g>
			</g>
			<g>
				<g>
					<path d="M77.9,275.2c14,4.3,28.6,4.6,43.2,4.8c1.9,0,1.9-3,0-3c-14.3-0.2-28.6-0.5-42.4-4.7C76.8,271.7,76,274.6,77.9,275.2
						L77.9,275.2z"/>
				</g>
			</g>
			<g>
				<g>
					<path d="M54.9,252.2c0.6,1.7-1.3,4.9-1.8,6.5c-0.9,2.4-1.7,4.9-2.6,7.3c-0.4,1.1,0.8,2.1,1.8,1.8c3.3-0.9,6.5-1.8,9.8-2.7
						c-0.6-0.6-1.2-1.2-1.8-1.8c-1.3,4.9-2.2,9.8-2.7,14.8c-0.1,1,1,1.7,1.9,1.4c3.5-1.1,6.5-2.7,9.4-5c1.5-1.2-0.6-3.3-2.1-2.1
						c-2.5,2-5,3.3-8.1,4.2c0.6,0.5,1.3,1,1.9,1.4c0.5-4.8,1.3-9.4,2.6-14c0.3-1.1-0.7-2.2-1.8-1.8c-3.3,0.9-6.5,1.8-9.8,2.7
						c0.6,0.6,1.2,1.2,1.8,1.8c1.2-3.4,2.4-6.7,3.5-10.1c0.6-1.8,1.6-3.5,0.9-5.3C57.1,249.6,54.2,250.4,54.9,252.2L54.9,252.2z"/>
				</g>
			</g>
			<g>
				<g>
					<path d="M256.5,250.8c0,0.2-0.1,0.4-0.1,0.6c0.9,0.1,1.9-0.5,1.8-1.4c-0.1-1-0.2-1.9-0.3-2.9
						C257.5,248.3,257,249.6,256.5,250.8z"/>
				</g>
			</g>
			<g>
				<g>
					<path d="M68.1,323.7c-0.1-2.2,1.5-2.8,3-4c1-0.8,1.7-1.8,2.3-2.9c1-2.3,1.1-4.9,1.2-7.3c0-1.9-3-1.9-3,0c0,3.5-0.3,6.5-3.3,8.6
						c-2.1,1.4-3.3,3.1-3.1,5.7C65.3,325.6,68.3,325.7,68.1,323.7L68.1,323.7z"/>
				</g>
			</g>
			<g>
				<g>
					<path d="M153.3,324.1c2.2,1,3.9,2.3,6.4,2s4.6-1.7,6.6-3.1c1.5-1.1,0.1-3.7-1.5-2.6c-1.4,1-2.9,2.1-4.6,2.6
						c-2.2,0.5-3.6-0.6-5.4-1.5C153.1,320.7,151.5,323.3,153.3,324.1L153.3,324.1z"/>
				</g>
			</g>
			<g>
				<g>
					<path d="M155.2,310.7c5,2,10.2,4.6,15.5,5.6c1.9,0.4,2.7-2.5,0.8-2.9c-5.3-1-10.5-3.7-15.5-5.6
						C154.2,307.1,153.4,310,155.2,310.7L155.2,310.7z"/>
				</g>
			</g>
			<g>
				<g>
					<path d="M134.1,279.7c-0.1,1.3-0.2,2.5-0.3,3.8c1,0,2,0,3,0c-0.1-1.4-0.1-2.9-0.2-4.3c-0.1-1.9-3.1-1.9-3,0
						c0.1,1.4,0.1,2.9,0.2,4.3c0.1,1.9,2.9,1.9,3,0c0.1-1.3,0.2-2.5,0.3-3.8C137.3,277.8,134.3,277.8,134.1,279.7L134.1,279.7z"/>
				</g>
			</g>
			<g>
				<g>
					<path d="M135.3,280.9c1.9,1.1,3.9,2,5.9,2.9c0.8,0.3,1.6,0.2,2.1-0.5c0.4-0.6,0.2-1.7-0.5-2.1c-2-0.9-4-1.8-5.9-2.9
						C135.2,277.4,133.7,280,135.3,280.9L135.3,280.9z"/>
				</g>
			</g>
			<g>
				<g>
					<path d="M213.1,317.4c1.4-3.3,3-6.4,5-9.5c-0.8,0.1-1.6,0.2-2.4,0.3c2.6,2.4,5.1,4.8,7.7,7.2c0.8,0.8,2.2,0.4,2.5-0.7
						c1.5-5.3,3-10.7,4.6-16c-0.9,0.1-1.8,0.2-2.7,0.4c1.7,2.4,3.5,4.6,5.5,6.7c0.6,0.7,1.9,0.6,2.4-0.3c1.8-3.8,3.4-7.6,4.9-11.6
						c0.7-1.8-2.2-2.6-2.9-0.8c-1.4,3.7-2.9,7.3-4.6,10.9c0.8-0.1,1.6-0.2,2.4-0.3c-1.8-1.9-3.5-3.9-5-6.1c-0.7-1-2.4-1-2.7,0.4
						c-1.5,5.3-3,10.7-4.6,16c0.8-0.2,1.7-0.4,2.5-0.7c-2.6-2.4-5.1-4.8-7.7-7.2c-0.7-0.7-1.8-0.5-2.4,0.3
						c-2.1,3.2-3.8,6.6-5.3,10.2C209.5,318.4,212.4,319.2,213.1,317.4L213.1,317.4z"/>
				</g>
			</g>
			<g>
				<g>
					<path d="M208,300.8c7.4-8,12.2-17.7,14.1-28.5c0.3-1.9-2.6-2.7-2.9-0.8c-1.8,10.3-6.2,19.5-13.3,27.2
						C204.6,300.1,206.7,302.2,208,300.8L208,300.8z"/>
				</g>
			</g>
			<g>
				<g>
					<path d="M245.2,216.8c7.4,2.9,14.6,6.2,21.7,9.9c-0.1-0.8-0.2-1.6-0.3-2.4c-3.8,3.6-8.2,5.7-13.4,6.5c-1.2,0.2-1.3,1.7-0.7,2.5
						c4.3,5.4,8.6,10.8,13,16.2c0.4-0.9,0.7-1.7,1.1-2.6c-1.3,0.2-2.6,0.2-4-0.1c-1.9-0.3-2.7,2.6-0.8,2.9c1.6,0.2,3.1,0.3,4.8,0.2
						c1.4-0.1,1.9-1.5,1.1-2.6c-4.3-5.4-8.6-10.8-13-16.2c-0.2,0.8-0.4,1.7-0.7,2.5c5.7-0.9,10.5-3.3,14.7-7.3
						c0.7-0.6,0.5-1.9-0.3-2.4c-7.3-3.8-14.7-7.2-22.4-10.2C244.2,213.2,243.4,216.1,245.2,216.8L245.2,216.8z"/>
				</g>
			</g>
			<g>
				<g>
					<path d="M68.1,283.9c-6.6,9.2-14.2,17.8-22.9,25.1c-2,1.6-3.3,2.8-6.1,3.1c-1.2,0.2-2.6-0.2-3.8,0c-1.1,0.2-2.2,0.4-3.1,1.1
						c-2,1.4-2.8,3.5-1.8,5.8c2.2,4.9,10.6,10.4,15.9,7.6c4.3-2.3,8-7.2,11.6-10.5c4.6-4.3,9.1-8.5,13.7-12.8
						c1.4-1.3-0.7-3.4-2.1-2.1c-6.2,5.8-12.5,11.7-18.7,17.5c-4.3,4-8.1,7.2-13.6,3.4c-2.5-1.7-5.5-4.2,0.1-6.9
						c1.2-0.6,3.4,0,4.8-0.5c5.5-1.8,10.4-8,14.3-12c5.2-5.4,10-11.1,14.4-17.2C71.8,283.8,69.2,282.3,68.1,283.9L68.1,283.9z"/>
				</g>
			</g>
		</g>
	</g>
</g>
</svg>
